<svg xmlns="http://www.w3.org/2000/svg" width="46.231" height="32.812" viewBox="0 0 46.231 32.812">
  <path id="Icon_awesome-users" data-name="Icon awesome-users" d="M6.71,15.669A4.473,4.473,0,1,0,2.237,11.2,4.477,4.477,0,0,0,6.71,15.669Zm31.312,0A4.473,4.473,0,1,0,33.548,11.2,4.477,4.477,0,0,0,38.022,15.669Zm2.237,2.237H35.785a4.46,4.46,0,0,0-3.152,1.3,10.223,10.223,0,0,1,5.249,7.646h4.613a2.234,2.234,0,0,0,2.237-2.237V22.379A4.477,4.477,0,0,0,40.258,17.906Zm-17.893,0a7.828,7.828,0,1,0-7.828-7.828A7.824,7.824,0,0,0,22.366,17.906Zm5.368,2.237h-.58a10.808,10.808,0,0,1-9.575,0H17a8.054,8.054,0,0,0-8.052,8.052v2.013A3.356,3.356,0,0,0,12.3,33.562H32.43a3.356,3.356,0,0,0,3.355-3.355V28.194A8.054,8.054,0,0,0,27.733,20.143ZM12.1,19.206a4.46,4.46,0,0,0-3.152-1.3H4.473A4.477,4.477,0,0,0,0,22.379v2.237a2.234,2.234,0,0,0,2.237,2.237H6.842A10.249,10.249,0,0,1,12.1,19.206Z" transform="translate(0.75 -1.5)" fill="none" stroke="#707070" stroke-width="1.5"/>
</svg>
