<svg xmlns="http://www.w3.org/2000/svg" xmlns:xlink="http://www.w3.org/1999/xlink" width="95" height="95" viewBox="0 0 95 95">
  <defs>
    <filter id="Ellipse_32" x="0" y="0" width="95" height="95" filterUnits="userSpaceOnUse">
      <feOffset dy="3" input="SourceAlpha"/>
      <feGaussianBlur stdDeviation="3" result="blur"/>
      <feFlood flood-opacity="0.161"/>
      <feComposite operator="in" in2="blur"/>
      <feComposite in="SourceGraphic"/>
    </filter>
  </defs>
  <g id="Group_909" data-name="Group 909" transform="translate(-634 -207)">
    <g transform="matrix(1, 0, 0, 1, 634, 207)" filter="url(#Ellipse_32)">
      <circle id="Ellipse_32-2" data-name="Ellipse 32" cx="38.5" cy="38.5" r="38.5" transform="translate(9 6)" fill="#fff"/>
    </g>
    <g id="_17669668121536043552" data-name="17669668121536043552" transform="translate(663 230)">
      <path id="Path_6197" data-name="Path 6197" d="M39.085,14.159l1.476-6.746a.738.738,0,0,0-1.112-.787,9.347,9.347,0,0,1-4.547.93,4.948,4.948,0,0,1-3.159-1.329A6.83,6.83,0,0,0,27.315,4.5C23.3,4.5,21.972,6.8,21.9,6.9a.738.738,0,0,0-.074.517l1.476,6.746c-1.978,2.534-15.465,20.08-9.068,28.012,4.92,6.121,12.395,6.116,16.828,6.121h.453c4.468,0,11.809-.069,16.68-6.121C54.585,34.239,41.1,16.693,39.085,14.159Zm7.966,27.063c-4.428,5.506-11.317,5.57-15.539,5.57h-.448c-4.187,0-11.2,0-15.686-5.57-3.075-3.794-.443-10.707,2.3-15.809A76.07,76.07,0,0,1,24.7,14.833a.738.738,0,0,0,.148-.625L23.369,7.442A4.978,4.978,0,0,1,27.305,6a5.481,5.481,0,0,1,3.548,1.437,6.408,6.408,0,0,0,4.04,1.619,13.113,13.113,0,0,0,3.936-.551l-1.26,5.708a.738.738,0,0,0,.148.625,75.982,75.982,0,0,1,7.026,10.535c2.741,5.132,5.383,12.05,2.308,15.873Z" transform="translate(-12.529 -4.5)" fill="#dc1e44" stroke="#dc1e44" stroke-width="1"/>
      <path id="Path_6198" data-name="Path 6198" d="M49.357,47.151a.738.738,0,0,0,1.476,0A4.718,4.718,0,0,0,46.4,42.771V41.738a.738.738,0,1,0-1.476,0v1.033A4.718,4.718,0,0,0,40.5,47.151a4.714,4.714,0,0,0,4.428,4.374v5.9a3.22,3.22,0,0,1-2.952-2.893.738.738,0,1,0-1.476,0,4.715,4.715,0,0,0,4.428,4.379v1.033a.738.738,0,1,0,1.476,0V58.91a4.722,4.722,0,0,0,4.428-4.379A4.714,4.714,0,0,0,46.4,50.157v-5.9A3.22,3.22,0,0,1,49.357,47.151Zm-7.381,0a3.211,3.211,0,0,1,2.952-2.893v5.786A3.211,3.211,0,0,1,41.976,47.151Zm7.381,7.381A3.207,3.207,0,0,1,46.4,57.424V51.638a3.211,3.211,0,0,1,2.952,2.888Z" transform="translate(-26.737 -23.04)" fill="#dc1e44"/>
      <path id="Path_6199" data-name="Path 6199" d="M41.031,24.946a16.444,16.444,0,0,0,4.389.522,16.444,16.444,0,0,0,4.389-.522.738.738,0,0,0-.413-1.417,15.174,15.174,0,0,1-3.976.463,15.175,15.175,0,0,1-3.976-.463.738.738,0,0,0-.413,1.417Z" transform="translate(-26.737 -14.151)" fill="#dc1e44" stroke="#dc1e44" stroke-width="1"/>
    </g>
  </g>
</svg>
