<svg id="Group_786" data-name="Group 786" xmlns="http://www.w3.org/2000/svg" width="33.479" height="33.819" viewBox="0 0 33.479 33.819">
  <path id="Path_6190" data-name="Path 6190" d="M61.345,79.731H47.03a11.934,11.934,0,0,0,2.56-7.42V49.269H71.674V61.42a.635.635,0,0,0,1.269,0V48.635A.634.634,0,0,0,72.309,48H48.955a.634.634,0,0,0-.635.635V72.311a10.686,10.686,0,0,1-3.15,7.606A.635.635,0,0,0,45.619,81H61.345a.635.635,0,1,0,0-1.269Z" transform="translate(-44.984 -48)" fill="#707070"/>
  <path id="Path_6191" data-name="Path 6191" d="M157.669,148.766H143.111a.635.635,0,0,0,0,1.269h14.558a.635.635,0,1,0,0-1.269Z" transform="translate(-134.742 -143.755)" fill="#707070"/>
  <path id="Path_6192" data-name="Path 6192" d="M158.3,203.6a.634.634,0,0,0-.635-.635H143.111a.635.635,0,0,0,0,1.269h14.558A.634.634,0,0,0,158.3,203.6Z" transform="translate(-134.742 -192.842)" fill="#707070"/>
  <path id="Path_6193" data-name="Path 6193" d="M151.977,257.807a.634.634,0,0,0-.635-.635h-8.23a.635.635,0,1,0,0,1.269h8.23a.634.634,0,0,0,.635-.635Z" transform="translate(-134.743 -241.929)" fill="#707070"/>
  <path id="Path_6194" data-name="Path 6194" d="M143.112,311.375a.635.635,0,0,0,0,1.269h5.176a.635.635,0,0,0,0-1.269Z" transform="translate(-134.743 -291.015)" fill="#707070"/>
  <path id="Path_6195" data-name="Path 6195" d="M257.242,259.537a8.2,8.2,0,0,0-13.877,4.4l-.5-.5a.635.635,0,1,0-.9.9l1.46,1.46a.637.637,0,0,0,.9,0l1.461-1.46a.635.635,0,0,0-.9-.9l-.144.144a6.928,6.928,0,1,1,1.8,6.669.635.635,0,0,0-.9.9,8.2,8.2,0,0,0,11.6-11.6Z" transform="translate(-226.167 -239.722)" fill="#707070"/>
  <path id="Path_6196" data-name="Path 6196" d="M356.24,291.32a.634.634,0,0,0-.635.635v4.86a.644.644,0,0,0,.186.449l2.3,2.3a.635.635,0,1,0,.9-.9l-2.115-2.115v-4.6A.634.634,0,0,0,356.24,291.32Z" transform="translate(-330.964 -271.835)" fill="#707070"/>
</svg>
