<svg xmlns="http://www.w3.org/2000/svg" width="33.25" height="33.25" viewBox="0 0 33.25 33.25">
  <path id="User_Circle" data-name="User Circle" d="M16.5,33A16.5,16.5,0,1,1,33,16.5,16.5,16.5,0,0,1,16.5,33ZM6.27,27.72a15.154,15.154,0,0,0,20.46,0c-.911-2.086-3.577-3.194-5.729-4.079S18.48,21.516,18.48,20.46a3.96,3.96,0,0,1,1.228-2.8,4.5,4.5,0,0,0,1.5-3.485A4.633,4.633,0,0,0,16.5,9.24a4.541,4.541,0,0,0-4.62,4.937,4.422,4.422,0,0,0,1.426,3.485,3.96,3.96,0,0,1,1.214,2.8c0,1.056-.29,2.244-2.429,3.115S7.181,25.621,6.27,27.72ZM16.5,7.92a5.94,5.94,0,0,1,6.032,6.257,5.782,5.782,0,0,1-1.954,4.475A2.64,2.64,0,0,0,19.8,20.46c0,.581,0,1.241,1.6,1.9,2.218.924,5.042,2.1,6.31,4.369a15.18,15.18,0,1,0-22.44,0c1.333-2.27,4.105-3.445,6.217-4.29C13.2,21.7,13.2,21.014,13.2,20.46a2.64,2.64,0,0,0-.739-1.808,5.755,5.755,0,0,1-1.9-4.475A5.821,5.821,0,0,1,16.5,7.92Z" transform="translate(0.125 0.125)" fill="#707070" stroke="#999" stroke-width="0.25"/>
</svg>
