<svg id="Component_6_1" data-name="Component 6 – 1" xmlns="http://www.w3.org/2000/svg" width="70" height="70" viewBox="0 0 70 70">
  <rect id="Rectangle_95" data-name="Rectangle 95" width="70" height="70" rx="10" fill="#dc1e44"/>
  <g id="Component_4_18" data-name="Component 4 – 18" transform="translate(20.778 21.3)">
    <path id="Path_26" data-name="Path 26" d="M140.224,317.9a13,13,0,1,1,13-13A13.012,13.012,0,0,1,140.224,317.9Zm0-24.113A11.116,11.116,0,1,0,151.34,304.9,11.129,11.129,0,0,0,140.224,293.786Z" transform="translate(-127.227 -291.905)" fill="#fff" stroke="rgba(0,0,0,0)" stroke-width="1"/>
    <path id="Path_27" data-name="Path 27" d="M182.233,348.211a1.281,1.281,0,0,1-.91-.377l-7.192-7.192a1.286,1.286,0,1,1,1.818-1.819l7.192,7.192a1.286,1.286,0,0,1-.91,2.2Z" transform="translate(-152.531 -317.218)" fill="#fff" stroke="rgba(0,0,0,0)" stroke-width="1"/>
    <path id="Path_28" data-name="Path 28" d="M164.345,307.885a.828.828,0,0,1-.818-.712,6.415,6.415,0,0,0-5.314-5.4.828.828,0,0,1,.215-1.642c.059.008,5.889.841,6.738,6.811a.828.828,0,0,1-.7.936A.85.85,0,0,1,164.345,307.885Z" transform="translate(-143.518 -296.923)" fill="#fff" stroke="rgba(0,0,0,0)" stroke-width="1"/>
  </g>
</svg>
