<svg width="841" height="787" viewBox="0 0 841 787" fill="none" xmlns="http://www.w3.org/2000/svg">
<circle cx="372" cy="415" r="367" stroke="#DC1E44" stroke-width="10"/>
<path d="M522.732 246.599L286.918 510.908C286.918 510.908 245.608 449.822 212.34 443.257C197.606 440.35 174 432.466 174 432.466L281.679 607L570 223L522.732 246.599Z" fill="#DC1E44"/>
<path d="M661.897 14.8974C657.946 14.8974 654.157 16.467 651.363 19.2608C648.57 22.0546 647 25.8438 647 29.7949C647 33.7459 648.57 37.5351 651.363 40.3289C654.157 43.1228 657.946 44.6923 661.897 44.6923C665.848 44.6923 669.638 43.1228 672.432 40.3289C675.225 37.5351 676.795 33.7459 676.795 29.7949C676.795 25.8438 675.225 22.0546 672.432 19.2608C669.638 16.467 665.848 14.8974 661.897 14.8974ZM751.282 0C735.478 0 720.321 6.27818 709.146 17.4534C697.97 28.6287 691.692 43.7856 691.692 59.5897C691.692 75.3939 697.97 90.5508 709.146 101.726C720.321 112.901 735.478 119.179 751.282 119.179C767.086 119.179 782.243 112.901 793.418 101.726C804.594 90.5508 810.872 75.3939 810.872 59.5897C810.872 43.7856 804.594 28.6287 793.418 17.4534C782.243 6.27818 767.086 0 751.282 0Z" fill="#DC1E44"/>
<path d="M810.873 163.871C802.971 163.871 795.392 167.01 789.805 172.598C784.217 178.185 781.078 185.764 781.078 193.666C781.078 201.568 784.217 209.146 789.805 214.734C795.392 220.322 802.971 223.461 810.873 223.461C818.775 223.461 826.354 220.322 831.941 214.734C837.529 209.146 840.668 201.568 840.668 193.666C840.668 185.764 837.529 178.185 831.941 172.598C826.354 167.01 818.775 163.871 810.873 163.871Z" fill="#D3153B"/>
</svg>
