<svg xmlns="http://www.w3.org/2000/svg" width="42.867" height="25.72" viewBox="0 0 42.867 25.72"><g transform="matrix(-1, 0, 0, -1, 46.14, -23.507)"><g transform="translate(3.274 -49.227)"><path d="M34.862-23.986a1.44,1.44,0,0,1-2.143,0,1.585,1.585,0,0,1,0-2.232l8.216-8.556H4.8a1.536,1.536,0,0,1-1.531-1.594A1.536,1.536,0,0,1,4.8-37.962h36.13l-8.216-8.556a1.585,1.585,0,0,1,0-2.232,1.526,1.526,0,0,1,1.072-.478,1.526,1.526,0,0,1,1.072.478L45.681-37.483a1.585,1.585,0,0,1,0,2.232Z" transform="translate(-3.274 49.227)"/></g></g></svg>