<svg xmlns="http://www.w3.org/2000/svg" xmlns:xlink="http://www.w3.org/1999/xlink" width="162" height="139" viewBox="0 0 162 139"><defs><clipPath id="a"><rect width="162" height="139" rx="10" transform="translate(0 -0.423)" fill="#fef9fa"/></clipPath></defs><g transform="translate(0 0.423)"><g clip-path="url(#a)"><g transform="translate(0.371 0)"><path d="M196.509,128.023c0,8.859,5.476,14.5,11.114,23.033L234.039,191c4.671,7.248,6.6,12.564,20.778,12.564,13.369,0,81.824.966,89.717-.805a15.66,15.66,0,0,0,6.121-3.06c3.06-2.255,6.765-6.926,6.926-11.758.483-9.664-.322-21.906,0-31.731l.161-20.778c-.322-5.8-.644-10.47-6.6-14.98s-10.631-4.027-20.617-4.027c-.644-2.577-15.141-26.094-16.751-28.671-4.188-6.765-7.731-15.463-14.335-19.973-11.436-7.892-23.355,2.738-35.6,9.986-5.476,3.383-58.308,34.63-61.851,38.335-3.06,3.06-5.315,6.926-5.315,11.758Z" transform="translate(-196.509 -64.994)" fill="#333" fill-rule="evenodd"/><path d="M229.316,149.463h87.623c9.02,0,15.3-5.96,15.624-14.98.322-10.147,0-20.617,0-30.765H213.853c0,10.148-.322,20.778,0,30.6C214.176,143.181,220.3,149.463,229.316,149.463Z" transform="translate(-173.908 -14.113)" fill="#f9f9f9" fill-rule="evenodd"/><path d="M232.3,183.241c.322-8.859-.966-50.576.966-56.375a17.621,17.621,0,0,1,9.02-10.148c6.282-2.9,28.026-1.772,36.724-1.772h38.174c-1.772-4.832-8.054-10.631-7.087-14.013,2.738.161,2.9,1.933,5.8,6.6a74.322,74.322,0,0,0,4.671,7.409l5.315.161c-.805-3.382-19.49-32.859-22.711-38.5-2.577-4.51-5.154-8.215-10.792-9.825-8.537-2.416-19.329,6.121-28.51,11.758l-51.06,30.926c-4.349,2.577-9.181,5.154-12.08,8.537-3.221,3.866-4.027,10.309-1.611,15.624Z" transform="translate(-194.929 -63.192)" fill="#f43735" fill-rule="evenodd"/><path d="M213.772,104.376h118.71C332,88.753,320.563,88.591,310.9,88.591H236.322c-6.121,0-11.6-.805-15.946,2.577-3.866,2.9-6.282,6.121-6.443,13.208Z" transform="translate(-173.826 -34.099)" fill="#f9f9f9" fill-rule="evenodd"/><path d="M206.89,120.423c.483-3.7-6.443-7.57-4.027-14.658,1.45-4.51,6.6-6.282,10.792-8.859l18.362-11.275c2.255-1.289,5.154-2.094,5.315-4.993-2.577-.644-9.825,4.832-13.369,6.926-4.51,2.577-8.859,5.315-13.208,8.054-6.443,4.027-14.819,8.054-9.342,19.329,1.611,3.383,2.738,5.8,5.315,5.476Z" transform="translate(-192.394 -44.508)" fill="#333" fill-rule="evenodd"/><g transform="translate(134.334 108.774)"><rect width="15.302" height="2.255" rx="0.696" fill="#434242"/><rect width="15.302" height="2.255" rx="0.696" transform="translate(0 6.282)" fill="#434242"/><rect width="15.302" height="2.255" rx="0.696" transform="translate(0 12.564)" fill="#434242"/></g><circle cx="14.013" cy="14.013" r="14.013" transform="translate(75.381 96.049)" fill="#ffc601"/><circle cx="14.013" cy="14.013" r="14.013" transform="translate(49.449 96.049)" fill="#f43735"/></g></g></g></svg>