<svg id="Icon_feather-shopping-cart" data-name="Icon feather-shopping-cart" xmlns="http://www.w3.org/2000/svg" width="30.238" height="29" viewBox="0 0 30.238 29">
  <path id="Path_6197" data-name="Path 6197" d="M14.476,31.238A1.238,1.238,0,1,1,13.238,30,1.238,1.238,0,0,1,14.476,31.238Z" transform="translate(-1.833 -4.976)" fill="none" stroke="#707070" stroke-linecap="round" stroke-linejoin="round" stroke-width="3"/>
  <path id="Path_6198" data-name="Path 6198" d="M30.976,31.238A1.238,1.238,0,1,1,29.738,30,1.238,1.238,0,0,1,30.976,31.238Z" transform="translate(-4.714 -4.976)" fill="none" stroke="#707070" stroke-linecap="round" stroke-linejoin="round" stroke-width="3"/>
  <path id="Path_6199" data-name="Path 6199" d="M1.5,1.5H6.452L9.77,18.078a2.476,2.476,0,0,0,2.476,1.993H24.281a2.476,2.476,0,0,0,2.476-1.993L28.738,7.69H7.69" fill="none" stroke="#707070" stroke-linecap="round" stroke-linejoin="round" stroke-width="3"/>
</svg>
