<svg xmlns="http://www.w3.org/2000/svg" xmlns:xlink="http://www.w3.org/1999/xlink" width="162" height="138" viewBox="0 0 162 138"><defs><clipPath id="a"><rect width="162" height="138" rx="10" transform="translate(-0.128 0.481)" fill="#fef9fa"/></clipPath></defs><g transform="translate(0.128 -0.481)"><g transform="translate(0 0)" clip-path="url(#a)"><g transform="translate(0 7.568)"><path d="M35.094,57.533,24.936,58.567c-1.148.23.746-.23-.344.115l6.772,71.739,142.33-14.176c-.172-3.96-1.09-10.9-1.55-15.438-.23-2.468,4.477-19.743,5.28-22.9.689-2.755,8.781-34.664,9.01-36.615-1.148-.631-68.238-17.1-69.328-17.389-1.377-.344-67.721-17.16-69.443-17.1L35.094,57.591Z" transform="translate(-24.551 -6.8)" fill="#86cb70" fill-rule="evenodd"/><path d="M30.624,69.595l124.883,30.934L170.371,40.67l-125-30.991Z" transform="translate(-16.58 -3.021)" fill="#527844" fill-rule="evenodd"/><path d="M63.481,72.442,109.967,83.92l13.143-53.2L76.566,19.183c.23.344.057.115.344.4l3.673,3.73c9.355,10.847,9.183,28.007.115,38.567l-2.755,2.812c-2.3,2.525-6.887,5.108-10.216,6.313Z" transform="translate(26.549 9.455)" fill="#86cb70" fill-rule="evenodd"/><path d="M32.41,64.692,78.9,76.227c-.344-.517.057-.057-.344-.459L76.085,73.53a36.8,36.8,0,0,1-6.256-10.273,30.279,30.279,0,0,1-.631-19,30.911,30.911,0,0,1,3.443-7.633c7.977-12.052,17.389-12.339,19.57-13.6L45.782,11.49l-13.257,53.2Z" transform="translate(-14.234 -0.643)" fill="#86cb70" fill-rule="evenodd"/><path d="M120.881,60.42a12.981,12.981,0,0,1-1.033,2.238c-.287.517-.459.631-.746,1.09-.4.574-.172.517-.689,1.09,5.28.4,11.249,1.377,16.529,2.066,2.7.344,5.452.689,8.15,1.033,1.377.172,2.812.344,4.19.517.918.115,3.271.287,3.9.689l-41.666,4.132.115-.115c1.722-1.377,2.927-1.837,4.706-3.73a25.829,25.829,0,0,0,2.7-2.812,7.544,7.544,0,0,0,1.32-1.779l-10.445-1.32c-1.033-.115-2.984-.172-3.157-.631l-.574.287c-2.64,2.755-4.591,2.755-6.543,3.673a1.232,1.232,0,0,0-.4.23l.4,4.19L95,71.5l-.4-3.96c-1.722-.23-4.3.172-6.543-.172a15.95,15.95,0,0,1-5.165-1.492,27.2,27.2,0,0,1,.574-2.812c.4-1.664.23-2.238.976-2.583-.057,0-.115-.057-.172-.057l-9.355-1.205a86.823,86.823,0,0,1-9.183-1.205,25.336,25.336,0,0,0,3.042,5.969,31.658,31.658,0,0,0,6.485,7.059,23.718,23.718,0,0,0,2.64,1.837l5.854,2.984L36,80.564,33.36,53.992a37.2,37.2,0,0,0-.517-6.37c-.115-.976-.172-2.238-.23-3.214-.115-1.148-.574-2.181-.631-3.042l-.23-3.156-3.386-.861c-.115.918,4.3,46.028,4.706,47.061l127.867-12.8-.057-1.205c-1.09-.631-17.217-4.362-19.857-4.993C134.31,63.749,127.538,61.912,120.881,60.42Z" transform="translate(-19.545 33.3)" fill="#527844" fill-rule="evenodd"/><path d="M62.893,48.62,52.735,47.415c-1.492.861-2.64,1.779-5.108,1.32a6.364,6.364,0,0,1-4.017-2.583L30.524,44.546l2.64,26.572,47.749-4.706L75.06,63.427c-1.033-.631-1.779-1.263-2.64-1.837-2.123-1.435-4.993-4.878-6.485-7.059a25.337,25.337,0,0,1-3.042-5.969Z" transform="translate(-16.71 42.746)" fill="#86cb70" fill-rule="evenodd"/><path d="M73.945,22.659C61.491,22.028,56.5,33.965,65.451,41.943c.746.689,2.525,1.722,3.042,2.468L65.451,56.635c-2.87.115-7.69-3.673-8.838-4.821a40.452,40.452,0,0,0-2.984,4.649c2.87,3.558,8.494,4.476,10.388,5.51-.172,1.205-.918,2.87-.746,3.9l2.468.574.976-4.19c7.518.459,12.282-2.353,13.716-8.666,1.205-5.28-1.32-8.9-4.706-11.708a18.837,18.837,0,0,0-3.329-2.41l2.7-11.249c2.87.287,5.969,2.812,7.346,3.96a39.293,39.293,0,0,0,2.927-4.419c-.574-.976-2.583-2.123-3.9-2.87a21.814,21.814,0,0,0-4.419-1.722l-.574-.287.689-3.042-2.468-.689L73.773,22.6Z" transform="translate(13.617 9.423)" fill="#fff" fill-rule="evenodd"/><path d="M29.929,40.715c.057.861.517,1.894.631,3.042.057.976.115,2.238.23,3.214.172,1.837.746,4.3.517,6.37l13.085,1.607-.459-.689a3.852,3.852,0,0,1-.344-.861A5.43,5.43,0,0,1,43.3,51.5c.057-7.461,9.986-8.494,12.167-2.181a6.1,6.1,0,0,1-1.779,6.715l-.115.115,10.158,1.205c-1.033-1.894-2.3-9.068-2.009-11.191.115-.8-.287-.344.344-.631-1.033-.459-30.417-7.69-31.393-7.69l-.4,3.042c-.172-.459.057,0-.287-.23Z" transform="translate(-17.492 33.951)" fill="#5c8c4e" fill-rule="evenodd"/><path d="M45.758,53.018c2.181.631,6.715.918,9.183,1.205L64.3,55.428a.211.211,0,0,1,.172.057c1.664,1.148,6.083,1.894,8.379,1.779.976-.057,1.033.115,1.09-.574l-.8-8.207L43.979,41.2c-.631.287-.23-.172-.344.631-.344,2.066.976,9.3,2.009,11.191Z" transform="translate(0.425 38.349)" fill="#3a5230" fill-rule="evenodd"/><path d="M72.319,49.236h0A6.514,6.514,0,0,1,71,51.015a25.828,25.828,0,0,1-2.7,2.812c-1.837,1.951-2.984,2.353-4.706,3.73a.123.123,0,0,0-.115.115l41.666-4.132c-.631-.4-3.042-.574-3.9-.689-1.377-.172-2.812-.344-4.19-.517-2.7-.344-5.452-.689-8.15-1.033-5.337-.689-11.249-1.664-16.529-2.066Z" transform="translate(26.549 48.903)" fill="#86cb70" fill-rule="evenodd"/><path d="M79.358,31.017c-8.322,1.837-5.51,14.176,2.7,12.167C89.975,41.29,87.106,29.3,79.358,31.017Z" transform="translate(40.802 24.767)" fill="#527844" fill-rule="evenodd"/><path d="M45.447,22.479a6.151,6.151,0,0,0-3.9,2.3,6.048,6.048,0,0,0-1.263,4.936,6.233,6.233,0,1,0,12.282-2.123,7.913,7.913,0,0,0-.861-2.238,4.954,4.954,0,0,0-1.492-1.607,6.29,6.29,0,0,0-4.821-1.32Z" transform="translate(-4.027 13.62)" fill="#527844" fill-rule="evenodd"/><path d="M36.834,50.766a6.772,6.772,0,0,0,4.017,2.583c2.468.459,3.558-.459,5.108-1.32.057-.057.115-.057.115-.115A6.1,6.1,0,0,0,47.853,45.2c-2.181-6.37-12.11-5.28-12.167,2.181a6.872,6.872,0,0,0,.287,1.894c.115.287.23.631.344.861l.459.689Z" transform="translate(-9.935 38.133)" fill="#3a5230" fill-rule="evenodd"/><path d="M73.283,50.015,63.01,48.58c-.057.689-.115.517-1.09.574-2.353.115-6.772-.689-8.379-1.779-.746.344-.631.861-.976,2.583a27.2,27.2,0,0,0-.574,2.812,15.951,15.951,0,0,0,5.165,1.492c2.238.287,4.763-.115,6.543.172l.4,3.96,2.64-.23-.4-4.19a2.5,2.5,0,0,1,.4-.23c1.894-.918,3.845-.861,6.543-3.673Z" transform="translate(11.467 46.46)" fill="#fff" fill-rule="evenodd"/><path d="M63.856,45.989c0,2.41-1.664,4.3-2.41,5.682.115.4,2.123.459,3.157.631l10.445,1.32h0c.517-.631.287-.517.689-1.09.287-.459.459-.574.746-1.09A11.265,11.265,0,0,0,77.515,49.2a59.848,59.848,0,0,0-6.887-1.779c-1.205-.287-2.238-.574-3.443-.861C66.209,46.333,64.43,45.645,63.856,45.989Z" transform="translate(23.878 44.517)" fill="#3a5230" fill-rule="evenodd"/><path d="M57.244,52.554l10.273,1.435.574-.287c.746-1.377,2.41-3.271,2.41-5.682-.746-.746-2.353-.861-3.386-1.09-.689-.172-2.87-1.09-3.329-.517a5.367,5.367,0,0,1-.976,3.96,6.408,6.408,0,0,1-2.87,1.951L59.2,45.151a6.826,6.826,0,0,0-2.812-.8l.8,8.207Z" transform="translate(17.233 42.486)" fill="#aeaeae" fill-rule="evenodd"/><path d="M59.932,41.694c5.8-.344,6.6-5.624,5.165-8.207a5.058,5.058,0,0,0-2.468-2.64l-2.64,10.847Z" transform="translate(21.891 24.765)" fill="#527844" fill-rule="evenodd"/><path d="M62.149,32.33l2.41-9.3a4.83,4.83,0,0,0-4.649,3.616A5.309,5.309,0,0,0,62.149,32.33Z" transform="translate(21.625 14.501)" fill="#527844" fill-rule="evenodd"/><path d="M62.158,45.993c-.287-.689.115-.23-.746-.517-.287-.115-.8-.172-1.148-.287a8.616,8.616,0,0,0-2.64-.517l.746,7.174A6.9,6.9,0,0,0,61.24,49.9a5.367,5.367,0,0,0,.976-3.96Z" transform="translate(18.861 42.906)" fill="#3a5230" fill-rule="evenodd"/></g></g></g></svg>