<svg xmlns="http://www.w3.org/2000/svg" width="29.35" height="34.554" viewBox="0 0 29.35 34.554"><g transform="translate(-118.5 -228.5)"><g transform="translate(-193.515 153.017)"><g transform="translate(312.515 75.983)"><g transform="translate(10.403 16.152)"><path d="M326.285,102.473h0a4.122,4.122,0,0,1-2.688-.977.672.672,0,0,1-.2-.6l.475-2.739a3.858,3.858,0,0,1-1.356-2.887,3.772,3.772,0,0,1,7.544,0,3.865,3.865,0,0,1-1.356,2.887l.475,2.739a.669.669,0,0,1-.2.6A4.137,4.137,0,0,1,326.285,102.473Zm-1.5-1.756a2.865,2.865,0,0,0,1.493.415h0a2.876,2.876,0,0,0,1.493-.417l-.476-2.743a.67.67,0,0,1,.319-.69,2.455,2.455,0,0,0,1.089-2.013,2.427,2.427,0,0,0-4.853,0,2.486,2.486,0,0,0,1.087,2.012.671.671,0,0,1,.32.691Z" transform="translate(-322.511 -91.503)" fill="#dc1e44" stroke="#dc1e44" stroke-miterlimit="10" stroke-width="1"/></g><path d="M338.6,86.47h-2.557c-.041-4.424-3.29-10.487-9.351-10.487-5.745,0-9.315,5.428-9.355,10.487h-2.556a2.265,2.265,0,0,0-2.266,2.26v6.8a14.039,14.039,0,0,0,14.04,14.006h.27a14.039,14.039,0,0,0,14.04-14.006v-6.8A2.265,2.265,0,0,0,338.6,86.47Zm-11.908-9.146c5.185,0,7.965,5.284,8.005,9.146H318.683C318.721,82.751,321.269,77.324,326.692,77.324Zm12.827,18.206A12.7,12.7,0,0,1,326.825,108.2h-.27a12.7,12.7,0,0,1-12.694-12.665v-6.8a.92.92,0,0,1,.92-.918H338.6a.92.92,0,0,1,.919.918Z" transform="translate(-312.515 -75.983)" fill="#dc1e44" stroke="#dc1e44" stroke-miterlimit="10" stroke-width="1"/></g></g></g></svg>