<svg xmlns="http://www.w3.org/2000/svg" xmlns:xlink="http://www.w3.org/1999/xlink" width="190" height="185" viewBox="0 0 190 185"><defs><filter id="a" x="0" y="0" width="190" height="185" filterUnits="userSpaceOnUse"><feOffset dx="-3" dy="-3" input="SourceAlpha"/><feGaussianBlur stdDeviation="5" result="b"/><feFlood flood-opacity="0.102"/><feComposite operator="in" in2="b"/><feComposite in="SourceGraphic"/></filter></defs><g transform="translate(16 18.432)"><g transform="matrix(1, 0, 0, 1, -16, -18.43)" filter="url(#a)"><ellipse cx="80" cy="77.5" rx="80" ry="77.5" transform="translate(18 18)" fill="#fff"/></g><g transform="translate(43 29.568)"><g fill="none" stroke="#dc1e44" stroke-width="4"><rect width="70" height="79" rx="10" stroke="none"/><rect x="2" y="2" width="66" height="75" rx="8" fill="none"/></g><rect width="41" height="6" rx="3" transform="translate(15 16)" fill="#dc1e44"/><rect width="28" height="5" rx="2.5" transform="translate(28 36)" fill="#dc1e44"/><rect width="11" height="5" rx="2.5" transform="translate(15 36)" fill="#dc1e44"/><rect width="28" height="4" rx="2" transform="translate(28 49)" fill="#dc1e44"/><rect width="11" height="4" rx="2" transform="translate(15 49)" fill="#dc1e44"/><rect width="28" height="4" rx="2" transform="translate(28 62)" fill="#dc1e44"/><rect width="11" height="4" rx="2" transform="translate(15 62)" fill="#dc1e44"/><g transform="translate(43 45.975)"><ellipse cx="21.5" cy="21" rx="21.5" ry="21" transform="translate(0 0.026)" fill="#fef9fa"/><ellipse cx="15.797" cy="15.3" rx="15.797" ry="15.3" transform="translate(4.793 5.544)" fill="#fef9fa" stroke="#dc1e44" stroke-width="4"/><g transform="translate(14 13.559)"><rect width="14" height="4" rx="2" transform="translate(0 5.467)" fill="#dc1e44"/><rect width="14" height="4" rx="2" transform="translate(9 0.467) rotate(90)" fill="#dc1e44"/></g></g></g></g></svg>