<svg xmlns="http://www.w3.org/2000/svg" xmlns:xlink="http://www.w3.org/1999/xlink" width="190" height="185" viewBox="0 0 190 185"><defs><filter id="a" x="0" y="0" width="190" height="185" filterUnits="userSpaceOnUse"><feOffset dx="-3" dy="-3" input="SourceAlpha"/><feGaussianBlur stdDeviation="5" result="b"/><feFlood flood-opacity="0.102"/><feComposite operator="in" in2="b"/><feComposite in="SourceGraphic"/></filter></defs><g transform="translate(18 18.332)"><g transform="matrix(1, 0, 0, 1, -18, -18.33)" filter="url(#a)"><ellipse cx="80" cy="77.5" rx="80" ry="77.5" transform="translate(18 18)" fill="#fff"/></g><path d="M125.892,961.382l-2.034-.981a20.575,20.575,0,0,0,1.213-1.856,24.768,24.768,0,0,0,3.008-8.824l.006-10.434H135.4c2.735,0,4.878-1.68,4.878-3.825s-2.143-3.825-4.878-3.825h-4.393a64.017,64.017,0,0,0-2.385-10.9c-2.039-6.185-4.831-9.32-8.3-9.32a7.97,7.97,0,0,0-4.953,2.071,12.426,12.426,0,0,1-6.029,2.48h-.057a13.314,13.314,0,0,1-6.428-2.494,8.082,8.082,0,0,0-4.93-2c-3.5,0-6.306,3.127-8.338,9.295a62.755,62.755,0,0,0-2.358,10.871H83.227c-2.735,0-4.878,1.68-4.878,3.825s2.143,3.825,4.878,3.825h7.314V949.7l.02.113a28.029,28.029,0,0,0,3.468,8.764c.4.651.822,1.261,1.261,1.843l-2.5.949,0-.005-18.057,7.047-9.51,24.842H153.41L143.9,968.409Zm4.931,18.479v-13.7l2.954,1.153v12.547Zm-2.734-14.767v15.778H90.663V965.045l2.533-.989,1.705-.647c1.311,8,13.1,13.966,13.632,14.23l.625.312.626-.312c.536-.267,12.561-6.357,13.666-14.478l1.32.637Zm-43.113,2.171,2.954-1.153v14.76H84.976Zm24.338.274a17.688,17.688,0,0,0,11.194-3.637c-.861,2.865-3.444,5.464-5.679,7.27a40.006,40.006,0,0,1-5.67,3.781,39.985,39.985,0,0,1-5.67-3.781c-2.469-2-5.359-4.959-5.885-8.179A16.73,16.73,0,0,0,109.314,967.538Zm-26.087-30.9c-1.227,0-2.144-.622-2.144-1.177s.917-1.177,2.144-1.177h6.44l.137-1.175c1.1-9.453,4.043-18.99,8.126-18.99a5.451,5.451,0,0,1,3.2,1.407,15.926,15.926,0,0,0,8.154,3.088h.1a15.044,15.044,0,0,0,7.741-3.1,5.349,5.349,0,0,1,3.194-1.45c4.027,0,6.978,9.568,8.116,19.051l.14,1.171H135.4c1.227,0,2.144.621,2.144,1.177s-.917,1.177-2.144,1.177H83.227Zm10.048,12.821V939.286h32.077v10.222a22.448,22.448,0,0,1-2.668,7.746,14.5,14.5,0,0,1-13.37,7.637c-5.439,0-9.777-2.558-12.895-7.6A26.019,26.019,0,0,1,93.275,949.459ZM69.147,990.6l7.724-20.176,5.371-2.1V990.6Zm40.167,0H84.976V983.52h48.8V990.6Zm27.2,0V968.38l5.245,2.047,7.725,20.176Z" transform="translate(-29.718 -875.096)" fill="#dc1e44" stroke="#dc1e44" stroke-width="1"/></g></svg>