<svg xmlns="http://www.w3.org/2000/svg" width="65.427" height="62.5" viewBox="0 0 65.427 62.5"><path d="M109.736,949.27l-1.492-.743a15.645,15.645,0,0,0,.89-1.406,19.2,19.2,0,0,0,2.207-6.685l0-7.9h5.368c2.007,0,3.579-1.273,3.579-2.9s-1.572-2.9-3.579-2.9h-3.223a49.864,49.864,0,0,0-1.75-8.259c-1.5-4.685-3.544-7.061-6.087-7.061a5.751,5.751,0,0,0-3.634,1.569,8.963,8.963,0,0,1-4.423,1.879h-.042a9.59,9.59,0,0,1-4.716-1.89,5.828,5.828,0,0,0-3.617-1.516c-2.568,0-4.627,2.369-6.118,7.042a48.887,48.887,0,0,0-1.73,8.236h-2.94c-2.007,0-3.579,1.273-3.579,2.9s1.572,2.9,3.579,2.9H83.8v7.888l.015.085a21.671,21.671,0,0,0,2.544,6.64c.293.493.6.956.925,1.4l-1.836.719,0,0L72.2,954.594l-6.978,18.82h64.709l-6.978-18.82Zm3.618,14V952.89l2.167.873v9.506Zm-2.006-11.187v11.954H83.888V952.045l1.859-.749,1.251-.49c.962,6.058,9.612,10.581,10,10.781l.459.236.459-.236c.393-.2,9.216-4.816,10.027-10.968l.968.482Zm-31.633,1.644,2.167-.873v11.182H79.715Zm17.857.207a12.71,12.71,0,0,0,8.213-2.755c-.632,2.17-2.527,4.139-4.167,5.508a29.281,29.281,0,0,1-4.16,2.865,29.268,29.268,0,0,1-4.16-2.865c-1.811-1.512-3.932-3.757-4.318-6.2A12.065,12.065,0,0,0,97.572,953.934Zm-19.14-23.409c-.9,0-1.573-.471-1.573-.892s.673-.892,1.573-.892h4.725l.1-.891c.809-7.161,2.966-14.387,5.962-14.387a3.936,3.936,0,0,1,2.351,1.066,11.469,11.469,0,0,0,5.983,2.34h.076a10.848,10.848,0,0,0,5.679-2.349,3.866,3.866,0,0,1,2.343-1.1c2.955,0,5.12,7.249,5.955,14.433l.1.887h5c.9,0,1.573.471,1.573.892s-.673.892-1.573.892H78.432Zm7.372,9.713V932.53H109.34v7.744a17.4,17.4,0,0,1-1.958,5.868,10.58,10.58,0,0,1-9.81,5.786c-3.991,0-7.174-1.938-9.461-5.761A20.1,20.1,0,0,1,85.8,940.237ZM68.1,971.408l5.667-15.285,3.941-1.588v16.873Zm29.471,0H79.715v-5.367h35.806v5.367Zm19.955,0V954.572l3.849,1.551,5.668,15.285Z" transform="translate(-64.859 -911.164)" fill="#231f20" stroke="#000" stroke-width="0.5"/></svg>