<svg xmlns="http://www.w3.org/2000/svg" xmlns:xlink="http://www.w3.org/1999/xlink" width="33" height="41" viewBox="0 0 33 41"><defs><clipPath id="a"><rect width="33" height="41" transform="translate(0 0)" fill="#a1a1a1" stroke="#a1a1a1" stroke-width="0.5"/></clipPath></defs><g transform="translate(-0.5 -0.167)"><g transform="translate(0.5 0.167)"><path d="M16.391,11.521a.962.962,0,0,0-.965.958v18.1a.965.965,0,0,0,1.931,0v-18.1a.962.962,0,0,0-.965-.958Zm0,0" transform="translate(4.941 3.862)" fill="#a1a1a1" stroke="#a1a1a1" stroke-width="0.5"/><g transform="translate(0)"><g clip-path="url(#a)"><path d="M8.592,11.521a.974.974,0,0,0-.965.982V31.058a.965.965,0,1,0,1.931,0V12.5a.974.974,0,0,0-.965-.982Zm0,0" transform="translate(1.349 3.222)" fill="#a1a1a1" stroke="#a1a1a1" stroke-width="0.5"/><path d="M3.469,13.857V38.045A5.468,5.468,0,0,0,4.884,41.78,4.717,4.717,0,0,0,8.334,43.3H26.6a4.715,4.715,0,0,0,3.449-1.517,5.467,5.467,0,0,0,1.416-3.736V13.857a3.749,3.749,0,0,0,2.711-4.11,3.71,3.71,0,0,0-3.657-3.265H25.575V5.255A3.89,3.89,0,0,0,24.461,2.5a3.76,3.76,0,0,0-2.709-1.126H13.18A3.76,3.76,0,0,0,10.471,2.5,3.891,3.891,0,0,0,9.357,5.255V6.482H4.415A3.71,3.71,0,0,0,.758,9.747a3.749,3.749,0,0,0,2.711,4.11ZM8.334,41.333A3.089,3.089,0,0,1,5.4,38.045v-24.1H29.533v24.1A3.089,3.089,0,0,1,26.6,41.333ZM11.288,5.255a1.907,1.907,0,0,1,.548-1.364,1.843,1.843,0,0,1,1.344-.55h8.572a1.843,1.843,0,0,1,1.344.55,1.906,1.906,0,0,1,.548,1.364V6.482H11.288ZM4.415,8.446h26.1a1.767,1.767,0,0,1,0,3.534H4.415a1.767,1.767,0,0,1,0-3.534Zm0,0" transform="translate(-1.829 -1.821)" fill="#a1a1a1" stroke="#a1a1a1" stroke-width="0.5"/></g></g><path d="M12.492,11.521a.962.962,0,0,0-.965.958v18.1a.965.965,0,0,0,1.931,0v-18.1a.962.962,0,0,0-.965-.958Zm0,0" transform="translate(3.145 3.862)" fill="#a1a1a1" stroke="#a1a1a1" stroke-width="0.5"/></g></g></svg>