<?xml version="1.0" encoding="UTF-8" standalone="no"?> <svg id="Layer_1" data-name="Layer 1" xmlns="http://www.w3.org/2000/svg" viewBox="0 0 24 24"><title>Artboard 16</title><path d="M20.53,7H19V2a1,1,0,0,0-.44-.83,1,1,0,0,0-.93-.1l-15,6a1.16,1.16,0,0,0-.36.25A2.49,2.49,0,0,0,1,9.47V20.53A2.48,2.48,0,0,0,3.47,23H20.53A2.48,2.48,0,0,0,23,20.53V9.47A2.48,2.48,0,0,0,20.53,7ZM17,7H8.19L17,3.48Zm4,10H17a2,2,0,0,1,0-4h4Zm-4-6a4,4,0,0,0,0,8h4v1.53a.47.47,0,0,1-.47.47H3.47A.47.47,0,0,1,3,20.53V9.47A.47.47,0,0,1,3.47,9H20.53a.47.47,0,0,1,.47.47V11Z"/><circle cx="18" cy="15" r="1"/></svg>