<svg width="33" height="33" viewBox="0 0 33 33" fill="none" xmlns="http://www.w3.org/2000/svg">
<path d="M15.5001 27.906C21.8282 27.906 26.9582 22.776 26.9582 16.4479C26.9582 10.1197 21.8282 4.98975 15.5001 4.98975C9.17199 4.98975 4.04199 10.1197 4.04199 16.4479C4.04199 22.776 9.17199 27.906 15.5001 27.906Z" stroke="#707070" stroke-width="2" stroke-linejoin="round"/>
<path d="M15.35 9.794L15.3487 16.674L20.2069 21.5321M3 5.82275L7.375 2.69775M28 5.82275L23.625 2.69775" stroke="#707070" stroke-width="2" stroke-linecap="round" stroke-linejoin="round"/>
<path d="M0.271413 1.58409C0.0974609 1.4099 -0.000168974 1.17374 2.19544e-07 0.927562C0.000169413 0.681388 0.098124 0.445364 0.272315 0.271413C0.446506 0.097461 0.682664 -0.00016897 0.928838 2.19534e-07C1.17501 0.000169409 1.41104 0.0981239 1.58499 0.272315L32.2068 30.8941C32.3808 31.0681 32.4785 31.304 32.4785 31.55C32.4785 31.796 32.3808 32.032 32.2068 32.2059C32.0329 32.3799 31.7969 32.4776 31.5509 32.4776C31.3049 32.4776 31.069 32.3799 30.895 32.2059L0.271413 1.58409Z" fill="#707070"/>
</svg>
