<svg xmlns="http://www.w3.org/2000/svg" width="80" height="80" viewBox="0 0 80 80">
  <g id="Group_981" data-name="Group 981" transform="translate(-512 -1260)">
    <circle id="Ellipse_32" data-name="Ellipse 32" cx="40" cy="40" r="40" transform="translate(512 1260)" opacity="0.8"/>
    <path id="dashboard_2_" data-name="dashboard (2)" d="M16.5,3H9.136a6.136,6.136,0,1,0,0,12.272H16.5A6.136,6.136,0,0,0,16.5,3Zm0,9.818H9.136a3.682,3.682,0,1,1,0-7.363H16.5a3.682,3.682,0,0,1,0,7.363Zm0,7.363H9.136A6.136,6.136,0,0,0,3,26.317V41.044A6.136,6.136,0,0,0,9.136,47.18H16.5a6.136,6.136,0,0,0,6.136-6.136V26.317A6.136,6.136,0,0,0,16.5,20.181Zm3.682,20.863A3.682,3.682,0,0,1,16.5,44.725H9.136a3.682,3.682,0,0,1-3.682-3.682V26.317a3.682,3.682,0,0,1,3.682-3.682H16.5a3.682,3.682,0,0,1,3.682,3.682Zm20.863-6.136H33.68a6.136,6.136,0,0,0,0,12.272h7.363a6.136,6.136,0,0,0,0-12.272Zm0,9.818H33.68a3.682,3.682,0,1,1,0-7.363h7.363a3.682,3.682,0,0,1,0,7.363ZM41.044,3H33.68a6.136,6.136,0,0,0-6.136,6.136V23.863A6.136,6.136,0,0,0,33.68,30h7.363a6.136,6.136,0,0,0,6.136-6.136V9.136A6.136,6.136,0,0,0,41.044,3Zm3.682,20.863a3.682,3.682,0,0,1-3.682,3.682H33.68A3.682,3.682,0,0,1,30,23.863V9.136A3.682,3.682,0,0,1,33.68,5.454h7.363a3.682,3.682,0,0,1,3.682,3.682Z" transform="translate(527 1275)" fill="#f3f2f5"/>
  </g>
</svg>
