<svg xmlns="http://www.w3.org/2000/svg" width="57.978" height="41.034" viewBox="0 0 57.978 41.034">
  <path id="Icon_awesome-users" data-name="Icon awesome-users" d="M8.472,19.193a5.648,5.648,0,1,0-5.648-5.648A5.653,5.653,0,0,0,8.472,19.193Zm39.534,0a5.648,5.648,0,1,0-5.648-5.648A5.653,5.653,0,0,0,48.006,19.193Zm2.824,2.824H45.182a5.631,5.631,0,0,0-3.98,1.641,12.908,12.908,0,0,1,6.627,9.654h5.824a2.821,2.821,0,0,0,2.824-2.824V27.665A5.653,5.653,0,0,0,50.83,22.017Zm-22.591,0a9.884,9.884,0,1,0-9.884-9.884A9.879,9.879,0,0,0,28.239,22.017Zm6.777,2.824h-.732a13.646,13.646,0,0,1-12.09,0h-.732A10.169,10.169,0,0,0,11.3,35.007v2.541a4.237,4.237,0,0,0,4.236,4.236H40.946a4.237,4.237,0,0,0,4.236-4.236V35.007A10.169,10.169,0,0,0,35.016,24.841ZM15.275,23.659a5.631,5.631,0,0,0-3.98-1.641H5.648A5.653,5.653,0,0,0,0,27.665v2.824a2.821,2.821,0,0,0,2.824,2.824H8.639A12.941,12.941,0,0,1,15.275,23.659Z" transform="translate(0.75 -1.5)" fill="none" stroke="#707070" stroke-width="1.5"/>
</svg>
