<svg xmlns="http://www.w3.org/2000/svg" width="43.077" height="43.077" viewBox="0 0 43.077 43.077">
  <path id="User_Circle" data-name="User Circle" d="M21.414,42.827A21.414,21.414,0,1,1,42.827,21.414,21.414,21.414,0,0,1,21.414,42.827ZM8.137,35.975a19.666,19.666,0,0,0,26.553,0c-1.182-2.707-4.642-4.146-7.435-5.293s-3.272-2.758-3.272-4.129a5.139,5.139,0,0,1,1.593-3.632A5.842,5.842,0,0,0,27.529,18.4a6.013,6.013,0,0,0-6.116-6.407,5.893,5.893,0,0,0-6,6.407,5.739,5.739,0,0,0,1.85,4.523,5.139,5.139,0,0,1,1.576,3.632c0,1.37-.377,2.912-3.152,4.043S9.319,33.251,8.137,35.975Zm13.276-25.7a7.709,7.709,0,0,1,7.829,8.12,7.5,7.5,0,0,1-2.535,5.807A3.426,3.426,0,0,0,25.7,26.553c0,.754,0,1.61,2.073,2.467,2.878,1.2,6.544,2.724,8.189,5.67a19.7,19.7,0,1,0-29.123,0c1.73-2.947,5.328-4.471,8.069-5.568,2.227-.959,2.227-1.85,2.227-2.57a3.426,3.426,0,0,0-.959-2.347A7.469,7.469,0,0,1,13.7,18.4a7.555,7.555,0,0,1,7.709-8.12Z" transform="translate(0.125 0.125)" fill="#707070" stroke="#999" stroke-width="0.25"/>
</svg>
