<svg id="Group_786" data-name="Group 786" xmlns="http://www.w3.org/2000/svg" width="43.448" height="43.89" viewBox="0 0 43.448 43.89">
  <path id="Path_6190" data-name="Path 6190" d="M66.217,89.18H47.639a15.488,15.488,0,0,0,3.322-9.63v-29.9H79.622V65.416a.824.824,0,1,0,1.647,0V48.824A.823.823,0,0,0,80.446,48H50.138a.823.823,0,0,0-.824.824V79.55a13.869,13.869,0,0,1-4.088,9.871.824.824,0,0,0,.582,1.406H66.217a.824.824,0,0,0,0-1.647Z" transform="translate(-44.984 -48)" fill="#707070"/>
  <path id="Path_6191" data-name="Path 6191" d="M162.193,148.766H143.3a.824.824,0,0,0,0,1.647h18.893a.824.824,0,1,0,0-1.647Z" transform="translate(-132.439 -142.263)" fill="#707070"/>
  <path id="Path_6192" data-name="Path 6192" d="M163.017,203.793a.823.823,0,0,0-.824-.824H143.3a.824.824,0,0,0,0,1.647h18.893A.823.823,0,0,0,163.017,203.793Z" transform="translate(-132.439 -189.827)" fill="#707070"/>
  <path id="Path_6193" data-name="Path 6193" d="M154.806,258a.823.823,0,0,0-.824-.824H143.3a.824.824,0,0,0,0,1.647h10.681a.823.823,0,0,0,.824-.824Z" transform="translate(-132.44 -237.39)" fill="#707070"/>
  <path id="Path_6194" data-name="Path 6194" d="M143.3,311.375a.824.824,0,0,0,0,1.647h6.718a.824.824,0,0,0,0-1.647Z" transform="translate(-132.44 -284.952)" fill="#707070"/>
  <path id="Path_6195" data-name="Path 6195" d="M261.848,260.254a10.637,10.637,0,0,0-18.01,5.7l-.654-.654a.824.824,0,0,0-1.165,1.165l1.9,1.9a.826.826,0,0,0,1.166,0l1.9-1.9a.823.823,0,0,0-1.165-1.165l-.187.187a8.991,8.991,0,1,1,2.332,8.655.824.824,0,0,0-1.165,1.165,10.646,10.646,0,0,0,15.056-15.057Z" transform="translate(-221.518 -234.538)" fill="#707070"/>
  <path id="Path_6196" data-name="Path 6196" d="M356.429,291.32a.824.824,0,0,0-.824.824v6.307a.836.836,0,0,0,.242.583l2.985,2.985A.824.824,0,1,0,360,300.854l-2.744-2.744v-5.966A.823.823,0,0,0,356.429,291.32Z" transform="translate(-323.627 -266.033)" fill="#707070"/>
</svg>
