<svg xmlns="http://www.w3.org/2000/svg" width="32.298" height="40.641" viewBox="0 0 32.298 40.641">
  <g id="Group_940" data-name="Group 940" transform="translate(0 1.02)">
    <g id="Group_10" data-name="Group 10" transform="translate(0 0)">
      <g id="Group_343" data-name="Group 343" transform="translate(0 0)">
        <g id="Path_30" data-name="Path 30" transform="translate(-311 -102.701)" fill="none" stroke-linecap="round" stroke-linejoin="round">
          <path d="M336.806,142.323H317.492A6.3,6.3,0,0,1,311,136.245v-.3a30.161,30.161,0,0,1,6.511-18.62L323.251,110h6.682l5.269,5.755a30.328,30.328,0,0,1,8.1,20.491h0A6.3,6.3,0,0,1,336.806,142.323Z" stroke="none"/>
          <path d="M 336.8060913085938 140.3229217529297 C 339.2829284667969 140.3229217529297 341.2979736328125 138.49365234375 341.2979736328125 136.2451782226562 C 341.2979736328125 129.2361602783203 338.609130859375 122.4386825561523 333.7268676757812 117.1051025390625 L 329.0525817871094 111.9999694824219 L 324.2245788574219 111.9999694824219 L 319.0857238769531 118.5612716674805 C 317.1156616210938 121.0761108398438 315.5919799804688 123.8520965576172 314.5569152832031 126.8120956420898 C 313.5238342285156 129.7665405273438 313 132.8402862548828 313 135.947998046875 L 313 136.2451782226562 C 313 138.49365234375 315.0150451660156 140.3229217529297 317.4918823242188 140.3229217529297 L 336.8060913085938 140.3229217529297 M 336.8060913085938 142.3229217529297 L 317.4918823242188 142.3229217529297 C 313.9068603515625 142.3229217529297 311 139.6015319824219 311 136.2451782226562 L 311 135.947998046875 C 311 129.2508850097656 313.2802734375 122.7289657592773 317.5112915039062 117.3279113769531 L 323.2506103515625 109.9999694824219 L 329.9330749511719 109.9999694824219 L 335.2019653320312 115.7545013427734 C 340.4256286621094 121.4610748291016 343.2979736328125 128.728515625 343.2979736328125 136.2451782226562 C 343.2979736328125 139.6015319824219 340.3911437988281 142.3229217529297 336.8060913085938 142.3229217529297 Z" stroke="none" fill="#707070"/>
        </g>
        <path id="Path_31" data-name="Path 31" d="M328.936,110.33a.3.3,0,0,0,.068-.069l.342-.482a9.53,9.53,0,0,0,1.791-5.538h0a1.329,1.329,0,0,0-2.007-1.064l-2.88,1.618a1.4,1.4,0,0,1-1.364,0l-2.88-1.618A1.329,1.329,0,0,0,320,104.242v.038a9.565,9.565,0,0,0,2.047,5.882l.086.111" transform="translate(-310.311 -103)" fill="none" stroke="#707070" stroke-linecap="round" stroke-linejoin="round" stroke-width="2"/>
      </g>
    </g>
    <text id="_" data-name="$" transform="translate(10.952 30.952)" fill="#707070" font-size="16" font-family="Montserrat-SemiBold, Montserrat" font-weight="600"><tspan x="0" y="0">$</tspan></text>
  </g>
</svg>
