<svg xmlns="http://www.w3.org/2000/svg" xmlns:xlink="http://www.w3.org/1999/xlink" width="190" height="185" viewBox="0 0 190 185"><defs><filter id="a" x="0" y="0" width="190" height="185" filterUnits="userSpaceOnUse"><feOffset dx="-3" dy="-3" input="SourceAlpha"/><feGaussianBlur stdDeviation="5" result="b"/><feFlood flood-opacity="0.102"/><feComposite operator="in" in2="b"/><feComposite in="SourceGraphic"/></filter></defs><g transform="translate(18 18.138)"><g transform="matrix(1, 0, 0, 1, -18, -18.14)" filter="url(#a)"><ellipse cx="80" cy="77.5" rx="80" ry="77.5" transform="translate(18 18)" fill="#fff"/></g><g transform="translate(50 40.677)"><g transform="translate(-311 -96.352)" fill="none" stroke-linecap="round" stroke-linejoin="round"><path d="M359.255,170.441H323.139c-6.7,0-12.139-5.089-12.139-11.365v-.556A56.4,56.4,0,0,1,323.176,123.7L333.908,110h12.5l9.852,10.761a56.712,56.712,0,0,1,15.139,38.316h0C371.395,165.353,365.959,170.441,359.255,170.441Z" stroke="none"/><path d="M 359.2554016113281 166.4414367675781 C 363.7434387207031 166.4414367675781 367.3947448730469 163.1375427246094 367.3947448730469 159.0765075683594 C 367.3947448730469 146.0353393554688 362.3910217285156 133.386962890625 353.3056335449219 123.4617004394531 L 344.6424255371094 113.9999771118164 L 335.8556823730469 113.9999771118164 L 326.3244323730469 126.1693878173828 C 322.6582336425781 130.8494262695312 319.8227233886719 136.0152130126953 317.896728515625 141.5232238769531 C 315.974609375 147.0201110839844 315 152.7389221191406 315 158.5208129882812 L 315 159.0765075683594 C 315 163.1375427246094 318.6513061523438 166.4414367675781 323.1393432617188 166.4414367675781 L 359.2554016113281 166.4414367675781 M 359.2554016113281 170.4414367675781 L 323.1393432617188 170.4414367675781 C 316.4355773925781 170.4414367675781 311 165.3526458740234 311 159.0765075683594 L 311 158.5208129882812 C 311 145.9977264404297 315.2638854980469 133.8022155761719 323.1755981445312 123.7026596069336 L 333.90771484375 109.9999771118164 L 346.4034118652344 109.9999771118164 L 356.2557983398438 120.7605133056641 C 366.023681640625 131.4313507080078 371.3947448730469 145.0209197998047 371.3947448730469 159.0765075683594 C 371.3947448730469 165.3526458740234 365.9591979980469 170.4414367675781 359.2554016113281 170.4414367675781 Z" stroke="none" fill="#dc1e44"/></g><path d="M336.709,116.707a.56.56,0,0,0,.127-.129l.64-.9a17.821,17.821,0,0,0,3.35-10.355h0a2.485,2.485,0,0,0-3.753-1.989l-5.385,3.026a2.616,2.616,0,0,1-2.551,0l-5.385-3.026A2.484,2.484,0,0,0,320,105.322v.07a17.885,17.885,0,0,0,3.827,11l.161.207" transform="translate(-301.882 -103)" fill="none" stroke="#dc1e44" stroke-linecap="round" stroke-linejoin="round" stroke-width="4"/></g><text transform="translate(70 98.862)" fill="#dc1e44" font-size="30" font-family="Montserrat-SemiBold, Montserrat" font-weight="600"><tspan x="0" y="0">$</tspan></text></g></svg>