<svg xmlns="http://www.w3.org/2000/svg" width="130.138" height="112" viewBox="0 0 130.138 112"><g transform="translate(-86.862 -588)"><g transform="translate(86.862 588)"><path d="M25.755,8.563A25.265,25.265,0,1,0,51.023,33.824,25.26,25.26,0,0,0,25.755,8.563Z" transform="translate(-0.5 13.308)"/><path d="M78.316,1.692H16.06a8.408,8.408,0,0,0-8.394,8.394V20.619c.809-.067,1.623-.124,2.445-.124a27.026,27.026,0,0,1,3.151.188v-10.6a2.8,2.8,0,0,1,2.8-2.8H78.319a2.8,2.8,0,0,1,2.8,2.8L81.2,88.042a2.056,2.056,0,0,1-2.253,2.378c-2.615.079-62.887-.053-62.887-.053a2.8,2.8,0,0,1-2.8-2.8V76.976a27.746,27.746,0,0,1-3.151.185c-.821,0-1.636-.057-2.445-.124V87.57a8.4,8.4,0,0,0,8.394,8.394s59.473.276,65.332,0,5.327-7.921,5.327-7.921V10.086A8.414,8.414,0,0,0,78.316,1.692Z" transform="translate(15.144 -1.692)"/><rect width="46.869" height="6.993" transform="translate(38.901 71.086)"/><path d="M17.5,18.894a29.487,29.487,0,0,1-.236,3.5H49.679V15.4H17.262A29.461,29.461,0,0,1,17.5,18.894Z" transform="translate(36.094 28.239)"/><path d="M53.538,26.712v-7H19.427a28.563,28.563,0,0,1-3.934,7Z" transform="translate(32.232 37.648)"/><path d="M21.9,17.989,33.318,28,52.044,14.828l2.419,3.451L57.112,12.6l2.655-5.682-6.255.541L47.263,8l2.368,3.387L33.6,22.668,22.164,12.635l-7.3,5.23a28.08,28.08,0,0,1,2.674,3.247Z" transform="translate(30.861 9.711)"/><text transform="translate(7 53)" fill="#fdf4e5" stroke="#fdf4e5" stroke-width="1" font-size="18" font-family="Montserrat-SemiBold, Montserrat" font-weight="600"><tspan x="0" y="0">KSh</tspan></text></g><ellipse cx="27.5" cy="28" rx="27.5" ry="28" transform="translate(162 644)" fill="#fdf4e5"/><g transform="translate(171.621 653.832)"><path d="M678.763,653.832a17.95,17.95,0,0,0-25.061-3.379l-1.368-1.369c-.39-.39-.75-.26-.8.29l-.448,4.9a.808.808,0,0,0,.908.909l4.9-.443c.55-.05.681-.41.29-.8l-1.419-1.421a15.067,15.067,0,0,1,20.418,21.8,15.172,15.172,0,0,1-2.476,2.392,15.064,15.064,0,0,1-24.15-13.622,1.443,1.443,0,1,0-2.869-.322A17.951,17.951,0,0,0,675.469,679a18.059,18.059,0,0,0,2.95-2.85,17.966,17.966,0,0,0,.344-22.321Z" transform="translate(-646.576 -646.817)" fill="#0d0d0d" stroke="#000" stroke-width="1"/><path d="M693.077,664.5a1.144,1.144,0,0,0-1.144,1.144v11.4l10.424,5.388a1.143,1.143,0,0,0,1.542-.491,1.144,1.144,0,0,0-.491-1.542l-9.187-4.749v-10A1.144,1.144,0,0,0,693.077,664.5Z" transform="translate(-675.673 -658.091)" fill="#0d0d0d" stroke="#000" stroke-width="1"/></g></g></svg>