<svg xmlns="http://www.w3.org/2000/svg" width="115.83" height="116" viewBox="0 0 115.83 116"><path d="M1076.761,764.21c-4.63-25.943-18.715-36.6-28.91-42.349a53.231,53.231,0,0,0-13.754-5.407,29.744,29.744,0,1,0-25.712.094,56.179,56.179,0,0,0-16.315,6.83c-9.649,5.967-21.313,15.987-25.927,40.736a5.722,5.722,0,1,0,11.25,2.1c3.761-20.17,12.17-27.834,20.7-33.107a43.348,43.348,0,0,1,44.133-1.286c9.42,5.323,19.554,13.566,23.271,34.4a5.721,5.721,0,0,0,5.625,4.716,5.9,5.9,0,0,0,1.011-.089A5.724,5.724,0,0,0,1076.761,764.21Zm-71.954-66.28A18.327,18.327,0,1,1,1021.154,708,18.332,18.332,0,0,1,1004.807,697.93Z" transform="translate(-963.532 -657.438)" stroke="#fdf4e5" stroke-width="5"/></svg>