<svg xmlns="http://www.w3.org/2000/svg" width="126.937" height="105.934" viewBox="0 0 126.937 105.934"><g transform="translate(-44.273 -27.277)"><path d="M69.126,44.52c-3.342.767-6.187,1.311-8.964,2.1a4.2,4.2,0,0,1-4.267-.958,21.6,21.6,0,0,0-5.275-3.1c-1.567-.661-2.467.256-1.78,1.834a26.436,26.436,0,0,0,3.242,5.44,4.056,4.056,0,0,1,.937,3.7,120.324,120.324,0,0,0-2.964,27.549c.045,3.754.019,3.755-4.211,3.3-.05-.776-.14-1.6-.152-2.418a120.066,120.066,0,0,1,2.6-27.16,4.578,4.578,0,0,0-.838-3.722A22.145,22.145,0,0,1,44.468,44.8c-1.05-4.439,2.264-7.681,6.7-6.606a19.265,19.265,0,0,1,5.914,2.8c1.358.9,2.475,1.4,4.079.827a41.236,41.236,0,0,1,4.4-1.079c-.658-1.792-1.383-3.339-1.794-4.966-1.412-5.593,2.53-9.752,8.04-8.149,2.859.832,5.484,2.591,8.076,4.162a3.491,3.491,0,0,0,3.092.639,92.622,92.622,0,0,1,49.778,0,3.485,3.485,0,0,0,3.081-.645c2.654-1.6,5.356-3.39,8.288-4.192,5.337-1.459,9.145,2.587,7.873,7.982a50.941,50.941,0,0,1-1.842,5.214c2.043.485,4.011,1.032,6.013,1.372.488.083,1.093-.51,1.64-.8,1.872-1,3.644-2.308,5.631-2.939,5.254-1.667,8.908,1.878,7.421,7.163a15.341,15.341,0,0,1-2.539,5.107,5.167,5.167,0,0,0-.963,4.707c.743,3.551,1.269,7.148,1.837,10.734.153.966.132,1.96.2,3.016-.638.143-1.11.255-1.584.354-1.822.382-2.7.036-2.958-2.21-.517-4.587-1.473-9.129-2.373-13.665a4.063,4.063,0,0,1,.863-3.706,24.08,24.08,0,0,0,3.251-5.428c.721-1.7-.193-2.582-1.9-1.886a15.781,15.781,0,0,0-4.739,2.763,4.725,4.725,0,0,1-5.217,1.105c-2.48-.773-5.07-1.193-7.957-1.844a19.329,19.329,0,0,0,.189,2.2,153.406,153.406,0,0,1,.006,66.754c-.5,2.292-.223,2.585,2.03,2.146,2.3-.45,4.624-.861,6.89-1.467a3.676,3.676,0,0,1,3.488.9,28.1,28.1,0,0,0,5.407,3.3c1.586.7,2.513-.185,1.842-1.779-.838-1.994-2.25-3.739-3.246-5.678a5.585,5.585,0,0,1-.89-3.254,128.741,128.741,0,0,0,3.024-31.817c-.02-.564-.75-8.685-.75-9.512,1.4-.089,3.2,2.691,4.623,2.6.1.746.461,5.983.479,6.531a123.03,123.03,0,0,1-2.51,29.94,5.848,5.848,0,0,0,1,4.9,18.28,18.28,0,0,1,2.736,6.376,5.006,5.006,0,0,1-6.261,6.057,20.246,20.246,0,0,1-6.569-2.848c-1.388-.914-2.471-1.367-4.047-.838A36.411,36.411,0,0,1,150.3,120c.242.661.43,1.158.606,1.66a30.022,30.022,0,0,1,1.107,3.225c1.253,5.482-2.707,9.574-8.071,7.975-2.859-.852-5.4-2.752-8.132-4.069a5.178,5.178,0,0,0-3.018-.754,105.071,105.071,0,0,1-49.928-.022,4.773,4.773,0,0,0-2.848.685c-2.658,1.315-5.117,3.184-7.9,4.075-5.661,1.814-9.826-2.411-8.337-8.178.384-1.488,1.037-2.907,1.626-4.522-1.979-.447-3.826-.957-5.708-1.23-.564-.082-1.229.489-1.84.776-2.3,1.078-4.491,2.534-6.9,3.162-4.138,1.079-7.4-1.943-6.539-6.13.5-2.415,2.1-4.588,3.077-6.923a6.964,6.964,0,0,0,.752-3.282c-.568-4.66-1.408-9.287-2.023-13.942-1.346-18.862-.5-10.321,3.83-9.918.523,3.818,1.069,14.018,1.648,17.865.349,2.322.738,4.646,1.292,6.925a4.055,4.055,0,0,1-.97,3.889,30.13,30.13,0,0,0-3.107,5.043,2.124,2.124,0,0,0,.075,1.942,2.058,2.058,0,0,0,1.919.153,27.631,27.631,0,0,0,5.047-3.1,4.03,4.03,0,0,1,4.071-.98c2.122.59,4.3.971,6.466,1.407,2.439.492,2.794.123,2.246-2.36a153.577,153.577,0,0,1-3.51-31.149,155.842,155.842,0,0,1,3.467-35C68.844,46.551,68.917,45.859,69.126,44.52Zm77.16,35.7a149.822,149.822,0,0,0-3.906-33.664,4.921,4.921,0,0,1,1.209-4.8,27.32,27.32,0,0,0,4.024-6.935c.956-2.328-.522-3.847-2.846-2.884a35.163,35.163,0,0,0-7.262,4.283c-1.33.982-2.36,1.457-4.029.966a89.192,89.192,0,0,0-51.163-.024,3.884,3.884,0,0,1-4.042-.917,29.957,29.957,0,0,0-6.041-3.908c-1.053-.507-2.53-.135-3.815-.161,0,1.278-.427,2.759.073,3.793A34.261,34.261,0,0,0,72.5,42.19a3.959,3.959,0,0,1,.995,3.674,153.74,153.74,0,0,0-.029,68.625,4.319,4.319,0,0,1-1.011,3.871,36.118,36.118,0,0,0-4.32,7.246c-1.019,2.444.535,3.961,2.965,2.913a39.281,39.281,0,0,0,7.237-4.346c1.194-.86,2.154-1.376,3.659-.975a98.78,98.78,0,0,0,51.711.006,3.818,3.818,0,0,1,3.668.94,41,41,0,0,0,6.619,4.165,3.672,3.672,0,0,0,3.265-.217c.552-.438.576-2.217.16-3.07a34.39,34.39,0,0,0-3.974-6.492,4.418,4.418,0,0,1-1.137-4.225A150.9,150.9,0,0,0,146.285,80.219Z" transform="translate(0 0)"/><path d="M155.807,151.141q12.27,0,24.539,0c2.672,0,3.276.618,3.277,3.251q.007,11.739,0,23.477c0,2.608-.638,3.253-3.287,3.254q-24.539.01-49.079,0c-2.669,0-3.257-.589-3.26-3.262q-.016-11.739,0-23.478c0-2.689.556-3.237,3.265-3.241Q143.537,151.13,155.807,151.141ZM132.49,155.59v21.049h46.633V155.59Z" transform="translate(-47.946 -67.935)"/><path d="M178.186,195.605v-4h38.2v4Z" transform="translate(-89.45 -91.109)"/><path d="M186.53,171.573v4.021h-38.2v-4.021Z" transform="translate(-59.591 -79.638)"/><g transform="translate(-62.609 -34.357)"><g transform="translate(157.066 94.101)"><path d="M171.344,102.009a3,3,0,0,0-2.671,1.62c-.336.644-.632,1.24-.911,1.816a35.073,35.073,0,0,0-6.014-4.718,3,3,0,0,0-2.986-.2h0c-.044.022-.09.038-.133.062a3,3,0,0,0-1.56,2.706c.1,4.553.5,7.489,1.177,8.724a5.806,5.806,0,0,0,7.141,2.661l.014,0a5.934,5.934,0,0,0,.692-.31,5.832,5.832,0,0,0,11.092-2.526c0-1.409-1.066-4.174-3.169-8.213A3,3,0,0,0,171.344,102.009Zm-10.182-.4c3.543,2.365,5.814,4.248,6.393,5.3a4.78,4.78,0,0,1-1.824,6.457c-.107-1.822-.928-6.3-5.877-12.08a1.892,1.892,0,0,1,1.308.32Zm.864,12.2a4.751,4.751,0,0,1-2.857-2.291c-.58-1.055-.952-3.981-1.047-8.24a1.917,1.917,0,0,1,.714-1.552c5.378,6.171,5.834,10.843,5.85,12.084A4.746,4.746,0,0,1,162.026,113.805Zm4.954-.016a5.83,5.83,0,0,0,1.5-7.39l-.007-.009q.506-1.062,1.135-2.274a1.916,1.916,0,0,1,1.374-1.016c1.742,8-.108,12.313-.691,13.408A4.8,4.8,0,0,1,166.98,113.789Zm4.441,2.834c.783-1.648,2.22-5.968.666-13.415a1.924,1.924,0,0,1,.992.907c1.966,3.778,3.049,6.523,3.049,7.726A4.788,4.788,0,0,1,171.421,116.623Z" transform="translate(-157.066 -100.222)" fill="#1a171b" stroke="#000" stroke-width="1.2"/></g><g transform="translate(161.519 77.935)"><path d="M166.157,92.375l.025.014a5.863,5.863,0,0,0,.751.362,5.786,5.786,0,0,0,2.109.4,5.849,5.849,0,0,0,5.45-3.725c.511-1.314.518-4.276.021-8.8a2.993,2.993,0,0,0-1.768-2.415h0c-.045-.02-.087-.045-.133-.062a3,3,0,0,0-3.076.543c-3.423,3-5.418,5.193-5.929,6.507a5.827,5.827,0,0,0,2.552,7.182Zm7.351-3.334a4.787,4.787,0,0,1-6.119,2.751c1.328-1.253,4.232-4.759,5.479-12.263a1.924,1.924,0,0,1,.6,1.206C173.928,84.968,173.944,87.917,173.507,89.04Zm-8.919-3.465c.436-1.123,2.439-3.288,5.641-6.1a1.93,1.93,0,0,1,1.278-.49,1.9,1.9,0,0,1,.371.038c-1.272,8.088-4.56,11.439-5.5,12.249a4.776,4.776,0,0,1-1.789-5.7Z" transform="translate(-163.206 -77.935)" fill="#1a171b" stroke="#000" stroke-width="1.2"/></g><g transform="translate(177.33 88.384)"><path d="M196.924,94.217c-1.179-.775-4.074-1.4-8.6-1.862a3,3,0,0,0-2.731,1.224v0c-.029.038-.062.075-.089.117a3,3,0,0,0-.112,3.121c2.222,3.975,3.946,6.383,5.125,7.159a5.8,5.8,0,0,0,3.194.96,5.931,5.931,0,0,0,1.2-.123,5.791,5.791,0,0,0,3.141-1.8l.01-.012a5.8,5.8,0,0,0-1.129-8.783Zm-2.236,9.564a4.748,4.748,0,0,1-3.6-.685c-1.007-.662-2.706-3.073-4.784-6.791a1.918,1.918,0,0,1-.1-1.707c7.641,2.936,10.231,6.85,10.827,7.939A4.741,4.741,0,0,1,194.688,103.782Zm3.068-2.124c-.947-1.561-3.77-5.135-10.847-7.922a1.921,1.921,0,0,1,1.3-.33c4.238.431,7.126,1.032,8.132,1.694a4.778,4.778,0,0,1,1.411,6.559Z" transform="translate(-185.002 -92.34)" fill="#1a171b" stroke="#000" stroke-width="1.2"/></g></g></g></svg>