<svg xmlns="http://www.w3.org/2000/svg" width="87.237" height="113.56" viewBox="0 0 87.237 113.56"><g transform="translate(-311 -99.94)"><g transform="translate(0 13.355)" fill="none" stroke-linecap="round" stroke-linejoin="round"><path d="M380.7,200.145H328.535c-9.683,0-17.535-7.59-17.535-16.95v-.829a85.859,85.859,0,0,1,17.587-51.929L344.089,110h18.049l14.231,16.049a86.107,86.107,0,0,1,21.867,57.146h0C398.237,192.555,390.385,200.145,380.7,200.145Z" stroke="none"/><path d="M 380.7022705078125 194.1447601318359 C 387.0624694824219 194.1447601318359 392.2368774414062 189.2325744628906 392.2368774414062 183.1946563720703 C 392.2368774414062 163.7178039550781 385.0072631835938 144.8365325927734 371.8803100585938 130.0294952392578 L 359.4395446777344 115.9999923706055 L 347.0685424804688 115.9999923706055 L 333.3669738769531 134.063232421875 C 322.6596069335938 148.1762084960938 317 164.8789978027344 317 183.1946563720703 C 317 189.2325744628906 322.1744079589844 194.1447601318359 328.5346069335938 194.1447601318359 L 380.7022705078125 194.1447601318359 M 380.7022705078125 200.1447601318359 L 328.5346069335938 200.1447601318359 C 318.8513793945312 200.1447601318359 311 192.5551605224609 311 183.1946563720703 L 311 182.3659057617188 C 311 163.6884613037109 317.158935546875 145.4995880126953 328.5869750976562 130.4367065429688 L 344.0889282226562 109.9999923706055 L 362.1382446289062 109.9999923706055 L 376.3695068359375 126.0486602783203 C 390.4786376953125 141.9635772705078 398.2368774414062 162.2316131591797 398.2368774414062 183.1946563720703 C 398.2368774414062 192.5551605224609 390.385498046875 200.1447601318359 380.7022705078125 200.1447601318359 Z" stroke="none" fill="#000"/></g><path d="M344.135,123.442a.823.823,0,0,0,.183-.192l.925-1.343a27.169,27.169,0,0,0,4.839-15.444h0a3.583,3.583,0,0,0-5.42-2.966l-7.779,4.513a3.675,3.675,0,0,1-3.684,0L325.42,103.5a3.583,3.583,0,0,0-5.42,2.966v.1a27.23,27.23,0,0,0,5.528,16.4l.233.308" transform="translate(17.171)" fill="none" stroke="#000" stroke-linecap="round" stroke-linejoin="round" stroke-width="6"/><text transform="translate(329 184)" font-size="24" font-family="Montserrat-Black, Montserrat" font-weight="800"><tspan x="0" y="0">KSh</tspan></text></g></svg>