<svg xmlns="http://www.w3.org/2000/svg" width="108" height="111" viewBox="0 0 108 111"><g transform="translate(-120 -293)"><g transform="translate(120 293)" fill="none" stroke="#000" stroke-width="6"><rect width="90" height="100" rx="10" stroke="none"/><rect x="3" y="3" width="84" height="94" rx="7" fill="none"/></g><rect width="50" height="6" rx="3" transform="translate(140 312)"/><rect width="34" height="6" rx="3" transform="translate(156 339)"/><rect width="12" height="6" rx="3" transform="translate(140 339)"/><rect width="34" height="6" rx="3" transform="translate(156 355)"/><rect width="12" height="6" rx="3" transform="translate(140 355)"/><rect width="34" height="6" rx="3" transform="translate(156 371)"/><rect width="12" height="6" rx="3" transform="translate(140 371)"/><circle cx="27" cy="27" r="27" transform="translate(174 350)" fill="#fdf4e5"/><circle cx="20" cy="20" r="20" transform="translate(181.5 357)" fill="#fdf4e5" stroke="#000" stroke-width="6"/><g transform="translate(1 1)"><rect width="18" height="4" rx="2" transform="translate(192 374)"/><rect width="18" height="4" rx="2" transform="translate(203 367) rotate(90)"/></g></g></svg>