<svg xmlns="http://www.w3.org/2000/svg" width="30.776" height="34.725" viewBox="0 0 30.776 34.725"><g transform="translate(-463.75 -118.638)"><g transform="translate(431 89)"><g transform="translate(33 29.888)"><g transform="translate(0 0)"><path d="M20.876,2.851A1.138,1.138,0,0,0,19.753,4v9.132a1.135,1.135,0,1,0,2.271.032V4.015a1.138,1.138,0,0,0-1.112-1.164ZM25.359,7.4a1.141,1.141,0,0,0-.3,2.245,12.867,12.867,0,1,1-8.349,0,1.137,1.137,0,1,0-.733-2.15,15.138,15.138,0,1,0,9.816,0A1.135,1.135,0,0,0,25.359,7.4Z" transform="translate(-5.75 -2.851)" fill="#dc1e44" stroke="#dc1e44" stroke-width="0.5"/></g></g></g></g></svg>