<svg xmlns="http://www.w3.org/2000/svg" width="48.4" height="24.268" viewBox="0 0 48.4 24.268"><g transform="translate(0 2699.333)"><g transform="translate(0 -2699.333)"><g transform="translate(11.618 4.567)"><path d="M1294.482-2191.345h3.716a2.155,2.155,0,0,1,2.149,2.149v6.179a2.155,2.155,0,0,1-2.149,2.149h-3.716a2.156,2.156,0,0,1-2.149-2.149v-6.179a2.156,2.156,0,0,1,2.149-2.149h0" transform="translate(-1292.333 2191.345)" fill="#fff" fill-rule="evenodd"/></g><g transform="translate(10.723)"><path d="M1195.77-2694.767h3.716a2.156,2.156,0,0,1,2.149,2.149v6.179a2.155,2.155,0,0,1-2.149,2.149h-3.716a2.156,2.156,0,0,1-2.149-2.149v-6.179A2.156,2.156,0,0,1,1195.77-2694.767Zm5.059,19.7h-6.4a1.707,1.707,0,0,1-1.7-1.7v-18.76a1.706,1.706,0,0,1,1.7-1.7h6.4a1.7,1.7,0,0,1,.224.015v-1.38a.741.741,0,0,1,.739-.739h0a.741.741,0,0,1,.739.739v2.328a.729.729,0,0,1-.06.291,1.687,1.687,0,0,1,.06.448v18.76a1.707,1.707,0,0,1-1.7,1.7h0" transform="translate(-1192.726 2699.333)" fill-rule="evenodd"/></g><g transform="translate(22.033 4.944)"><path d="M2452.992-2148.312c1.008-.145,1.783.136,1.836,1.724-.034,1.418-.787,1.777-1.836,1.7Zm-2.194-1.02,4.085-.016c1.49.189,2.178,1.3,2.115,2.926a2.533,2.533,0,0,1-2.588,2.574l-1.483-.03.042,4.485H2450.8v-9.94h0" transform="translate(-2450.797 2149.348)" fill-rule="evenodd"/></g><g transform="translate(29.533 4.825)"><path d="M3287.519-2162.614l2.587-.012-.02,1.11-2.026-.009c-1.169.217-.907,1.464-.964,2.365l2.726-.051.009,1.363-2.641-.028-.013,3.3a1.325,1.325,0,0,0,1.314,1.336l1.451-.016.442.01-.014,1.03-.454.017-2.758-.029c-.95-.032-1.717-.5-2.07-1.969l-.067-6.4c.039-1.313.905-1.956,2.5-2.015h0" transform="translate(-3285.023 2162.626)" fill-rule="evenodd"/></g><g transform="translate(35.369 4.839)"><path d="M3934.338-2158.27c-.163-2.145,1.032-2.629,2.485-2.8a2.478,2.478,0,0,1,2.978,2.418l-2.008-.005c-.127-.913-.837-1.264-1.487-.829-.926,1.133,1.964,3.127,2.831,3.867,1.5,1.185,1.244,4.469-1.063,5.078l-1.406.05c-1.43.034-2.28-.869-2.526-2.542l2.023-.035c.11.714.415,1.158,1.063,1.127,1.007-.191,1.285-1.078.568-2.21-1.5-1.273-3.275-2.468-3.456-4.119h0" transform="translate(-3934.141 2161.077)" fill-rule="evenodd"/></g><g transform="translate(0 4.513)"><path d="M0-2197.386H2.126l.022.66c1.285-.555,2.254-.948,3.269-.033,1.815-.857,3.187-.76,3.868.831L9.38-2187H7.236v-8.517c-.159-.729-.736-.854-1.433-.806V-2187H3.609v-8.517c-.159-.729-.736-.854-1.433-.806V-2187H0v-10.387H0" transform="translate(0 2197.386)" fill-rule="evenodd"/></g><g transform="translate(42.221 4.729)"><path d="M4698.573-2171.319c.073-.585.264-.821.907-.885.652.017.885.394.929.974v1.589h-1.836Zm-2.205,8.4h2.205v-5.485h1.836v5.485h2.138v-7.835a2.705,2.705,0,0,0-3-2.6c-1.978-.017-3.105.92-3.18,2.507v7.925h0" transform="translate(-4696.368 2173.357)" fill-rule="evenodd"/></g><path d="M1097.844-1726.329c.368.86.868,1.255,1.474,1.28a8.515,8.515,0,0,1-3.035,1.41,9.651,9.651,0,0,1-1.932-.384,4.993,4.993,0,0,0,3.492-2.306h0" transform="translate(-1084.514 1735.077)" fill-rule="evenodd"/><path d="M1097.844-1726.329c.368.86.868,1.255,1.474,1.28a8.515,8.515,0,0,1-3.035,1.41,9.651,9.651,0,0,1-1.932-.384A4.993,4.993,0,0,0,1097.844-1726.329Z" transform="translate(-1084.514 1735.077)" fill="none"/><g transform="translate(11.764 6.531)"><path d="M1314.193-1972.86l4.433,2.239c-2.258,2.97-6.064,3.048-10.119,2.664a7.986,7.986,0,0,0,5.686-4.9h0" transform="translate(-1308.507 1972.86)" fill="#393939" fill-rule="evenodd"/></g><g transform="translate(11.764 6.531)"><path d="M1314.193-1972.86l4.433,2.239c-2.258,2.97-6.064,3.048-10.119,2.664A7.986,7.986,0,0,0,1314.193-1972.86Z" transform="translate(-1308.507 1972.86)" fill="none"/></g></g></g></svg>