<svg xmlns="http://www.w3.org/2000/svg" xmlns:xlink="http://www.w3.org/1999/xlink" width="190" height="185" viewBox="0 0 190 185"><defs><filter id="a" x="0" y="0" width="190" height="185" filterUnits="userSpaceOnUse"><feOffset dx="-3" dy="-3" input="SourceAlpha"/><feGaussianBlur stdDeviation="5" result="b"/><feFlood flood-opacity="0.102"/><feComposite operator="in" in2="b"/><feComposite in="SourceGraphic"/></filter></defs><g transform="translate(18 18.332)"><g transform="matrix(1, 0, 0, 1, -18, -18.33)" filter="url(#a)"><ellipse cx="80" cy="77.5" rx="80" ry="77.5" transform="translate(18 18)" fill="#fff"/></g><path d="M1050.329,736.815c-3.525-19.127-14.247-26.981-22.008-31.223a41.314,41.314,0,0,0-10.471-3.987,22.234,22.234,0,0,0,10.405-9.889,21.273,21.273,0,0,0,2.4-9.853c0-12.091-10.166-21.926-22.66-21.926s-22.639,9.835-22.639,21.926a21.327,21.327,0,0,0,2.4,9.857,22.163,22.163,0,0,0,10.516,9.954,43.537,43.537,0,0,0-12.42,5.036c-7.345,4.4-16.225,11.787-19.737,30.034a4.234,4.234,0,0,0,3.481,4.922,4.345,4.345,0,0,0,5.083-3.374c2.863-14.871,9.264-20.522,15.758-24.409a33.923,33.923,0,0,1,33.6-.948c7.171,3.925,14.886,10,17.716,25.362a4.319,4.319,0,0,0,4.282,3.477,4.627,4.627,0,0,0,.77-.065A4.233,4.233,0,0,0,1050.329,736.815Zm-54.776-48.867a13.168,13.168,0,0,1-1.483-6.085,13.945,13.945,0,0,1,27.875,0,13.155,13.155,0,0,1-1.477,6.073,14.16,14.16,0,0,1-24.916.012Z" transform="translate(-928.545 -623.62)" fill="#dc1e44" stroke="#fef9fa" stroke-width="3"/></g></svg>