<svg xmlns="http://www.w3.org/2000/svg" xmlns:xlink="http://www.w3.org/1999/xlink" width="164" height="164" viewBox="0 0 164 164"><defs><filter id="a" x="0" y="0" width="164" height="164" filterUnits="userSpaceOnUse"><feOffset dy="10" input="SourceAlpha"/><feGaussianBlur stdDeviation="10" result="b"/><feFlood flood-color="#343e48" flood-opacity="0.212"/><feComposite operator="in" in2="b"/><feComposite in="SourceGraphic"/></filter></defs><g transform="translate(30.467 20.126)"><g transform="matrix(1, 0, 0, 1, -30.47, -20.13)" filter="url(#a)"><circle cx="52" cy="52" r="52" transform="translate(30 20)" fill="#f79d00"/></g><path d="M1016.51,707.466c-2.11-11.825-8.531-16.681-13.178-19.3a24.267,24.267,0,0,0-6.27-2.465,13.558,13.558,0,1,0-11.72.043,25.607,25.607,0,0,0-7.437,3.113c-4.4,2.72-9.715,7.287-11.818,18.568a2.608,2.608,0,1,0,5.128.958c1.714-9.194,5.547-12.687,9.435-15.09a19.758,19.758,0,0,1,20.116-.586c4.294,2.426,8.913,6.183,10.607,15.68a2.608,2.608,0,0,0,2.564,2.15,2.688,2.688,0,0,0,.461-.04A2.609,2.609,0,0,0,1016.51,707.466Zm-32.8-30.211a8.353,8.353,0,1,1,7.451,4.59A8.356,8.356,0,0,1,983.713,677.255Z" transform="translate(-939.578 -633.472)" fill="#fff"/></g></svg>