<svg xmlns="http://www.w3.org/2000/svg" xmlns:xlink="http://www.w3.org/1999/xlink" width="190" height="185" viewBox="0 0 190 185"><defs><filter id="a" x="0" y="0" width="190" height="185" filterUnits="userSpaceOnUse"><feOffset dx="-3" dy="-3" input="SourceAlpha"/><feGaussianBlur stdDeviation="5" result="b"/><feFlood flood-opacity="0.102"/><feComposite operator="in" in2="b"/><feComposite in="SourceGraphic"/></filter></defs><g transform="translate(16 18.138)"><g transform="translate(31 30.992)"><g transform="translate(-311 -105.454)" fill="none" stroke-linecap="round" stroke-linejoin="round"><path d="M327.075,130.134H315.044A3.921,3.921,0,0,1,311,126.348v-.185a18.787,18.787,0,0,1,4.056-11.6L318.631,110h4.162l3.282,3.584a18.892,18.892,0,0,1,5.043,12.764h0A3.921,3.921,0,0,1,327.075,130.134Z" stroke="none"/><path d="M 327.0746154785156 128.1339416503906 C 328.2015686035156 128.1339416503906 329.118408203125 127.3328247070312 329.118408203125 126.3481140136719 C 329.118408203125 122.1711730957031 327.5137939453125 118.1178817749023 324.6003112792969 114.9350738525391 L 321.9129028320312 111.9999771118164 L 319.6048889160156 111.9999771118164 L 316.6303100585938 115.7979049682617 C 315.4542541503906 117.2991790771484 314.5448913574219 118.9556045532227 313.9275207519531 120.7211837768555 C 313.3120727539062 122.4812850952148 313 124.3121719360352 313 126.1630020141602 L 313 126.3481140136719 C 313 127.3328247070312 313.9168395996094 128.1339416503906 315.0437927246094 128.1339416503906 L 327.0746154785156 128.1339416503906 M 327.0746154785156 130.1339416503906 L 315.0437927246094 130.1339416503906 C 312.8106689453125 130.1339416503906 311 128.4387969970703 311 126.3481140136719 L 311 126.1630020141602 C 311 121.9913787841797 312.4203491210938 117.9288635253906 315.0558776855469 114.5645446777344 L 318.6309204101562 109.9999771118164 L 322.7933959960938 109.9999771118164 L 326.0754089355469 113.58447265625 C 329.3292236328125 117.1390991210938 331.118408203125 121.6659851074219 331.118408203125 126.3481140136719 C 331.118408203125 128.4387969970703 329.3077392578125 130.1339416503906 327.0746154785156 130.1339416503906 Z" stroke="none" fill="#fff"/></g><path d="M325.566,107.566a.187.187,0,0,0,.042-.043l.213-.3a5.936,5.936,0,0,0,1.116-3.449h0a.828.828,0,0,0-1.25-.662l-1.794,1.008a.871.871,0,0,1-.85,0l-1.794-1.008a.828.828,0,0,0-1.25.662v.023a5.958,5.958,0,0,0,1.275,3.664l.054.069" transform="translate(-313.964 -103)" fill="none" stroke="#fff" stroke-linecap="round" stroke-linejoin="round" stroke-width="2"/></g><g transform="matrix(1, 0, 0, 1, -16, -18.14)" filter="url(#a)"><ellipse cx="80" cy="77.5" rx="80" ry="77.5" transform="translate(18 18)" fill="#fff"/></g><g transform="translate(33 36.803)"><path d="M60.653,1.692H13.961a6.209,6.209,0,0,0-6.3,6.1V15.44c.606-.049,1.218-.09,1.833-.09a20.921,20.921,0,0,1,2.363.136v-7.7a2.071,2.071,0,0,1,2.1-2.032H60.656a2.068,2.068,0,0,1,2.1,2.032l.062,56.625s.272,1.67-1.689,1.728S13.961,66.1,13.961,66.1a2.068,2.068,0,0,1-2.1-2.032V56.376A21.478,21.478,0,0,1,9.5,56.51c-.616,0-1.227-.042-1.833-.09v7.651a6.206,6.206,0,0,0,6.3,6.1s44.6.2,49,0,4-5.754,4-5.754V7.789A6.214,6.214,0,0,0,60.653,1.692Z" transform="translate(9.442 -1.692)" fill="#dc1e44"/><rect width="35.151" height="5.08" transform="translate(29.176 51.635)" fill="#dc1e44"/><path d="M17.439,17.938a20.754,20.754,0,0,1-.177,2.543H41.575V15.4H17.262A20.736,20.736,0,0,1,17.439,17.938Z" transform="translate(22.755 16.297)" fill="#dc1e44"/><path d="M44.027,24.8V19.712H18.444A20.578,20.578,0,0,1,15.493,24.8Z" transform="translate(20.301 21.953)" fill="#dc1e44"/><path d="M20.143,14.959,28.7,22.233l14.045-9.57,1.814,2.506,1.986-4.127,1.991-4.127-4.691.393-4.686.4,1.776,2.46L28.915,18.358,20.339,11.07l-5.474,3.8a20.551,20.551,0,0,1,2.005,2.358Z" transform="translate(19.429 5.161)" fill="#dc1e44"/><ellipse cx="20.625" cy="20.338" rx="20.625" ry="20.338" transform="translate(56.354 40.677)" fill="#dc1e44"/><g transform="translate(63.569 47.818)"><path d="M670.716,651.912a13.473,13.473,0,0,0-8.928-4.983,13.7,13.7,0,0,0-9.868,2.529l-1.026-.995c-.292-.284-.563-.189-.6.21l-.336,3.561a.6.6,0,0,0,.681.66l3.677-.322c.412-.036.51-.3.218-.581l-1.064-1.032a11.5,11.5,0,0,1,8.037-1.952A11.307,11.307,0,0,1,669,653.191a10.687,10.687,0,0,1-.216,13.606,11.228,11.228,0,0,1-1.857,1.737,11.493,11.493,0,0,1-8.351,2.174,11.307,11.307,0,0,1-7.492-4.181,10.644,10.644,0,0,1-2.27-7.887,1.056,1.056,0,0,0-.955-1.159,1.075,1.075,0,0,0-1.2.925,12.681,12.681,0,0,0,2.7,9.4,13.475,13.475,0,0,0,8.928,4.983,13.7,13.7,0,0,0,9.952-2.591,13.359,13.359,0,0,0,2.212-2.07,12.732,12.732,0,0,0,.258-16.214Z" transform="translate(-646.576 -646.817)" fill="#fff"/><path d="M692.791,664.5a.845.845,0,0,0-.858.831v8.279l7.818,3.914a.871.871,0,0,0,.393.093.861.861,0,0,0,.763-.449.819.819,0,0,0-.368-1.12l-6.89-3.45v-7.267A.845.845,0,0,0,692.791,664.5Z" transform="translate(-679.738 -659.845)" fill="#fff"/></g></g><g transform="translate(-82 -1054.138)"><path d="M19.441,8.563C8.982,8.563.5,16.778.5,26.912S8.982,45.266,19.441,45.266s18.951-8.215,18.951-18.354S29.908,8.563,19.441,8.563Z" transform="translate(114.5 1098.437)" fill="#dc1e44"/><g transform="translate(127 1116)"><g transform="translate(-311 -106.726)" fill="none" stroke-linecap="round" stroke-linejoin="round"><path d="M322.577,124.5h-8.665A2.824,2.824,0,0,1,311,121.774v-.133a13.531,13.531,0,0,1,2.921-8.353L316.5,110h3l2.364,2.582a13.606,13.606,0,0,1,3.632,9.193h0A2.824,2.824,0,0,1,322.577,124.5Z" stroke="none"/><path d="M 322.5771179199219 123.5007171630859 C 323.6316223144531 123.5007171630859 324.4895324707031 122.7261734008789 324.4895324707031 121.7741241455078 C 324.4895324707031 118.6554641723633 323.2928161621094 115.6306076049805 321.1199645996094 113.2568817138672 L 319.0534973144531 110.9999694824219 L 316.9828491210938 110.9999694824219 L 314.7082824707031 113.9041137695312 C 312.9365234375 116.1658477783203 312 118.8411636352539 312 121.6408081054688 L 312 121.7741241455078 C 312 122.7261734008789 312.8578796386719 123.5007171630859 313.9123840332031 123.5007171630859 L 322.5771179199219 123.5007171630859 M 322.5771179199219 124.5007171630859 L 313.9123840332031 124.5007171630859 C 312.3040771484375 124.5007171630859 311 123.2798614501953 311 121.7741241455078 L 311 121.6408081054688 C 311 118.6363372802734 312.02294921875 115.7104644775391 313.9210815429688 113.2874298095703 L 316.495849609375 109.9999694824219 L 319.4937438964844 109.9999694824219 L 321.8575134277344 112.5815734863281 C 324.2009582519531 115.1416625976562 325.4895324707031 118.4019927978516 325.4895324707031 121.7741241455078 C 325.4895324707031 123.2798614501953 324.1854858398438 124.5007171630859 322.5771179199219 124.5007171630859 Z" stroke="none" fill="#fff"/></g><path d="M324.009,106.288a.135.135,0,0,0,.03-.031l.154-.216a4.275,4.275,0,0,0,.8-2.484h0a.6.6,0,0,0-.9-.477l-1.292.726a.628.628,0,0,1-.612,0l-1.292-.726a.6.6,0,0,0-.9.477v.017a4.291,4.291,0,0,0,.918,2.639l.039.05" transform="translate(-315.653 -103)" fill="none" stroke="#fff" stroke-linecap="round" stroke-linejoin="round" stroke-width="1"/></g></g></g></svg>