<svg xmlns="http://www.w3.org/2000/svg" width="96.189" height="114.79" viewBox="0 0 96.189 114.79"><g transform="translate(-12.02)"><path d="M56.606,36.483c-1.53-6.061,2.741-10.567,8.712-8.83,3.1.9,5.943,2.808,8.751,4.51a3.783,3.783,0,0,0,3.35.692,100.365,100.365,0,0,1,53.939,0,3.776,3.776,0,0,0,3.338-.7c2.875-1.732,5.8-3.674,8.981-4.542,5.783-1.581,9.91,2.8,8.531,8.649a55.191,55.191,0,0,1-2,5.649,10.762,10.762,0,0,1-3.659,4.164,20.948,20.948,0,0,0,.2,2.384,166.23,166.23,0,0,1,.006,72.334c-.547,2.483,3.573,6.933,3.608,6.956.262.716.466,1.255.657,1.8a32.527,32.527,0,0,1,1.2,3.495c1.358,5.941-2.933,10.375-8.746,8.642-3.1-.923-5.848-2.982-8.811-4.409a5.611,5.611,0,0,0-3.27-.817,113.854,113.854,0,0,1-54.1-.024,5.172,5.172,0,0,0-3.087.742c-2.88,1.425-5.544,3.45-8.557,4.415-6.135,1.966-10.648-2.613-9.034-8.862.416-1.613,5.967-9.467,5.373-12.157a166.416,166.416,0,0,1-3.8-33.753,182.667,182.667,0,0,1,4.323-39.406C62.673,46.684,57.051,38.246,56.606,36.483Zm89.417,48.161a162.346,162.346,0,0,0-4.233-36.478,5.332,5.332,0,0,1,1.31-5.205,29.6,29.6,0,0,0,4.36-7.515c1.036-2.523-.566-4.169-3.084-3.125a38.1,38.1,0,0,0-7.87,4.641c-1.441,1.064-2.558,1.578-4.366,1.047a96.648,96.648,0,0,0-55.44-.026,4.208,4.208,0,0,1-4.38-.994,32.462,32.462,0,0,0-6.546-4.235c-1.141-.55-7-2.036-4.055,3.936a37.125,37.125,0,0,0,4.348,6.746,4.29,4.29,0,0,1,1.078,3.981,166.592,166.592,0,0,0-.031,74.362,4.68,4.68,0,0,1-1.1,4.195,39.138,39.138,0,0,0-4.681,7.852c-1.1,2.648.579,4.292,3.213,3.156a42.567,42.567,0,0,0,7.842-4.709c1.294-.932,2.334-1.49,3.965-1.056a107.038,107.038,0,0,0,56.034.007,4.137,4.137,0,0,1,3.974,1.019,44.428,44.428,0,0,0,7.172,4.514,3.979,3.979,0,0,0,3.538-.236c.6-.475.624-2.4.173-3.327a37.265,37.265,0,0,0-4.306-7.035,4.788,4.788,0,0,1-1.233-4.578A163.513,163.513,0,0,0,146.022,84.645Z" transform="translate(-44.273 -27.277)"/><path d="M158.132,151.142q13.3,0,26.591,0c2.895,0,3.55.67,3.551,3.523q.008,12.72,0,25.44c0,2.826-.691,3.525-3.562,3.526q-26.59.011-53.181,0c-2.893,0-3.529-.639-3.533-3.535q-.017-12.721,0-25.441c0-2.914.6-3.508,3.538-3.512Q144.836,151.129,158.132,151.142Zm-25.266,4.82V178.77H183.4V155.962Z" transform="translate(-98.019 -90.537)"/><path d="M178.186,195.94V191.6h41.4v4.337Z" transform="translate(-138.797 -112.265)"/><path d="M189.724,171.573v4.357h-41.4v-4.357Z" transform="translate(-108.938 -101.509)"/><g transform="translate(45.589 17.664)"><g transform="translate(0 17.517)"><path d="M172.537,102.158a3.252,3.252,0,0,0-2.894,1.756c-.364.7-.685,1.344-.987,1.967a38,38,0,0,0-6.517-5.112,3.246,3.246,0,0,0-3.236-.214h0c-.048.024-.1.042-.145.068a3.251,3.251,0,0,0-1.691,2.933c.111,4.934.54,8.115,1.276,9.453a6.291,6.291,0,0,0,7.738,2.883l.015,0a6.433,6.433,0,0,0,.75-.336,6.319,6.319,0,0,0,12.019-2.738c0-1.527-1.155-4.523-3.434-8.9A3.251,3.251,0,0,0,172.537,102.158Zm-11.033-.439c3.84,2.563,6.3,4.6,6.928,5.746a5.179,5.179,0,0,1-1.977,7c-.116-1.974-1.005-6.829-6.368-13.09a2.05,2.05,0,0,1,1.417.347Zm.936,13.221a5.148,5.148,0,0,1-3.1-2.482c-.628-1.143-1.031-4.314-1.135-8.929a2.077,2.077,0,0,1,.774-1.682c5.828,6.686,6.322,11.749,6.339,13.094A5.143,5.143,0,0,1,162.441,114.94Zm5.368-.017a6.317,6.317,0,0,0,1.625-8.008l-.007-.01q.548-1.151,1.23-2.464a2.076,2.076,0,0,1,1.489-1.1c1.888,8.667-.117,13.342-.749,14.529A5.2,5.2,0,0,1,167.809,114.923Zm4.812,3.071c.849-1.786,2.406-6.467.722-14.536a2.085,2.085,0,0,1,1.074.983c2.131,4.094,3.3,7.068,3.3,8.372A5.188,5.188,0,0,1,172.621,117.994Z" transform="translate(-157.066 -100.222)" fill="#1a171b" stroke="#000" stroke-width="1.2"/></g><g transform="translate(4.826)"><path d="M166.4,93.582l.027.015a6.355,6.355,0,0,0,.813.392,6.27,6.27,0,0,0,2.285.43,6.338,6.338,0,0,0,5.905-4.037c.553-1.423.561-4.633.023-9.538a3.243,3.243,0,0,0-1.915-2.617h0c-.049-.022-.094-.049-.144-.068a3.247,3.247,0,0,0-3.333.589c-3.709,3.254-5.871,5.627-6.425,7.051a6.314,6.314,0,0,0,2.765,7.783Zm7.965-3.613a5.187,5.187,0,0,1-6.631,2.981c1.439-1.357,4.585-5.157,5.937-13.288a2.085,2.085,0,0,1,.645,1.306C174.824,85.556,174.842,88.752,174.368,89.969ZM164.7,86.214c.472-1.217,2.643-3.563,6.113-6.608a2.092,2.092,0,0,1,1.385-.531,2.057,2.057,0,0,1,.4.041c-1.379,8.764-4.941,12.4-5.961,13.273a5.175,5.175,0,0,1-1.939-6.176Z" transform="translate(-163.206 -77.935)" fill="#1a171b" stroke="#000" stroke-width="1.2"/></g><g transform="translate(21.958 11.322)"><path d="M197.921,94.374c-1.277-.839-4.414-1.518-9.324-2.018a3.249,3.249,0,0,0-2.959,1.327v0c-.031.042-.067.082-.1.127a3.251,3.251,0,0,0-.121,3.382c2.407,4.307,4.276,6.917,5.553,7.757a6.284,6.284,0,0,0,3.462,1.041,6.425,6.425,0,0,0,1.3-.134,6.275,6.275,0,0,0,3.4-1.954l.011-.013a6.287,6.287,0,0,0-1.223-9.518ZM195.5,104.738a5.145,5.145,0,0,1-3.9-.743c-1.091-.717-2.932-3.33-5.184-7.358a2.078,2.078,0,0,1-.1-1.85c8.28,3.181,11.086,7.422,11.732,8.6A5.138,5.138,0,0,1,195.5,104.738Zm3.324-2.3c-1.026-1.691-4.085-5.564-11.754-8.585a2.081,2.081,0,0,1,1.413-.358c4.592.467,7.722,1.118,8.812,1.835a5.178,5.178,0,0,1,1.529,7.107Z" transform="translate(-185.002 -92.34)" fill="#1a171b" stroke="#000" stroke-width="1.2"/></g></g></g></svg>