<svg xmlns="http://www.w3.org/2000/svg" xmlns:xlink="http://www.w3.org/1999/xlink" width="190" height="185" viewBox="0 0 190 185"><defs><filter id="a" x="0" y="0" width="190" height="185" filterUnits="userSpaceOnUse"><feOffset dx="-3" dy="-3" input="SourceAlpha"/><feGaussianBlur stdDeviation="5" result="b"/><feFlood flood-opacity="0.102"/><feComposite operator="in" in2="b"/><feComposite in="SourceGraphic"/></filter></defs><g transform="translate(18 18.432)"><g transform="translate(0 -0.432)"><g transform="matrix(1, 0, 0, 1, -18, -18)" filter="url(#a)"><ellipse cx="80" cy="77.5" rx="80" ry="77.5" transform="translate(18 18)" fill="#fff"/></g></g><g transform="translate(30 35.834)"><path d="M63.98,40.519c-2.65.589-4.906,1.007-7.108,1.611a3.407,3.407,0,0,1-3.384-.735,17.263,17.263,0,0,0-4.183-2.38c-1.243-.507-1.956.2-1.411,1.408A20.177,20.177,0,0,0,50.465,44.6a3.045,3.045,0,0,1,.743,2.839A89.614,89.614,0,0,0,48.857,68.6c.036,2.883.015,2.883-3.339,2.534-.04-.6-.111-1.226-.12-1.857a89.4,89.4,0,0,1,2.064-20.858,3.431,3.431,0,0,0-.664-2.858,16.776,16.776,0,0,1-2.37-4.827c-.833-3.409,1.8-5.9,5.316-5.073a15.5,15.5,0,0,1,4.689,2.151,3.359,3.359,0,0,0,3.235.635,33.581,33.581,0,0,1,3.486-.829A39.737,39.737,0,0,1,59.731,33.8c-1.119-4.3,2.006-7.489,6.375-6.258a28.435,28.435,0,0,1,6.4,3.2,2.839,2.839,0,0,0,2.452.491,75.748,75.748,0,0,1,39.472,0,2.833,2.833,0,0,0,2.443-.5,27.72,27.72,0,0,1,6.572-3.219c4.232-1.121,7.252,1.987,6.243,6.13a38.311,38.311,0,0,1-1.461,4c1.62.373,3.18.792,4.768,1.053.387.064.867-.392,1.3-.616a28.576,28.576,0,0,1,4.465-2.257c4.166-1.28,7.064,1.442,5.884,5.5a11.64,11.64,0,0,1-2.013,3.922,3.871,3.871,0,0,0-.763,3.615c.589,2.727,1.006,5.489,1.456,8.243.121.742.105,1.505.156,2.316-.506.11-.88.2-1.256.272-1.445.293-2.145.028-2.346-1.7-.41-3.522-1.168-7.011-1.882-10.494a3.047,3.047,0,0,1,.684-2.846,18.384,18.384,0,0,0,2.578-4.169c.572-1.309-.153-1.983-1.505-1.448A12.613,12.613,0,0,0,136,41.168a3.834,3.834,0,0,1-4.136.849c-1.967-.594-4.021-.917-6.31-1.416a14.394,14.394,0,0,0,.15,1.69,114.188,114.188,0,0,1,0,51.264c-.4,1.76-.177,1.985,1.61,1.648,1.828-.345,3.667-.661,5.463-1.126a2.982,2.982,0,0,1,2.766.692,22.43,22.43,0,0,0,4.288,2.533c1.258.539,1.993-.142,1.461-1.366-.665-1.531-1.784-2.871-2.574-4.36a4.187,4.187,0,0,1-.706-2.5,95.86,95.86,0,0,0,2.4-24.434c-.016-.433-.595-6.67-.595-7.305,1.112-.069,2.54,2.066,3.666,2,.078.573.365,4.595.38,5.015a91.592,91.592,0,0,1-1.991,22.993,4.379,4.379,0,0,0,.79,3.766,13.812,13.812,0,0,1,2.169,4.9c.612,3.047-1.834,5.329-4.965,4.651a16.328,16.328,0,0,1-5.209-2.187,3.408,3.408,0,0,0-3.209-.644,29.686,29.686,0,0,1-3.1.659c.192.507.341.89.481,1.275a22.566,22.566,0,0,1,.878,2.477c.994,4.21-2.146,7.353-6.4,6.125-2.267-.654-4.279-2.114-6.448-3.125a4.212,4.212,0,0,0-2.393-.579,85.95,85.95,0,0,1-39.59-.017,3.884,3.884,0,0,0-2.259.526c-2.108,1.01-4.057,2.445-6.262,3.129-4.489,1.393-7.792-1.852-6.611-6.281.3-1.143.822-2.233,1.29-3.473C59.464,98.2,58,97.808,56.507,97.6c-.447-.063-.974.376-1.459.6a33.932,33.932,0,0,1-5.474,2.428c-3.282.828-5.871-1.492-5.185-4.707.4-1.854,1.664-3.524,2.44-5.317a5.209,5.209,0,0,0,.6-2.521c-.45-3.579-1.116-7.132-1.6-10.707-1.068-14.485-.4-7.926,3.037-7.617.414,2.932.848,10.765,1.307,13.72.277,1.783.585,3.568,1.025,5.318a3.045,3.045,0,0,1-.769,2.987,23.025,23.025,0,0,0-2.463,3.873,1.586,1.586,0,0,0,.06,1.491,1.678,1.678,0,0,0,1.522.117,22.047,22.047,0,0,0,4-2.377,3.27,3.27,0,0,1,3.228-.753c1.682.453,3.412.746,5.127,1.081,1.934.378,2.216.095,1.781-1.812a114.386,114.386,0,0,1-2.784-23.921A116.046,116.046,0,0,1,63.641,42.6C63.757,42.079,63.814,41.547,63.98,40.519Zm61.184,27.415a111.6,111.6,0,0,0-3.1-25.853,3.7,3.7,0,0,1,.959-3.689,20.833,20.833,0,0,0,3.19-5.326c.758-1.788-.414-2.955-2.257-2.215a28.1,28.1,0,0,0-5.759,3.289,3.3,3.3,0,0,1-3.195.742,72.93,72.93,0,0,0-40.57-.018,3.152,3.152,0,0,1-3.205-.7,23.854,23.854,0,0,0-4.79-3c-.835-.39-2.006-.1-3.025-.123,0,.982-.339,2.119.058,2.913a26.23,26.23,0,0,0,3.182,4.781,2.975,2.975,0,0,1,.789,2.821,114.442,114.442,0,0,0-.023,52.7,3.243,3.243,0,0,1-.8,2.973,27.568,27.568,0,0,0-3.425,5.565c-.808,1.877.424,3.042,2.351,2.237a31.37,31.37,0,0,0,5.739-3.337,3.183,3.183,0,0,1,2.9-.749,80.789,80.789,0,0,0,41,0,3.1,3.1,0,0,1,2.908.722,32.685,32.685,0,0,0,5.248,3.2,3,3,0,0,0,2.589-.167c.437-.336.456-1.7.127-2.358a26.275,26.275,0,0,0-3.151-4.986,3.32,3.32,0,0,1-.9-3.244A112.407,112.407,0,0,0,125.164,67.934Z" transform="translate(-44.273 -27.277)" fill="#dc1e44"/><path d="M150.048,151.141q9.729,0,19.458,0c2.118,0,2.6.475,2.6,2.5q.006,9.015,0,18.03c0,2-.506,2.5-2.606,2.5q-19.458.008-38.917,0c-2.117,0-2.582-.453-2.585-2.505q-.013-9.015,0-18.03c0-2.065.441-2.486,2.589-2.489Q140.318,151.132,150.048,151.141Zm-18.489,3.416v16.165h36.977V154.557Z" transform="translate(-99.625 -108.189)" fill="#dc1e44"/><path d="M178.186,194.676V191.6h30.293v3.073Z" transform="translate(-142.929 -135.375)" fill="#dc1e44"/><path d="M178.62,171.573v3.088H148.327v-3.088Z" transform="translate(-113.07 -121.918)" fill="#dc1e44"/><g transform="translate(39.794 12.519)"><g transform="translate(0 12.415)"><path d="M168.388,101.594a2.39,2.39,0,0,0-2.118,1.244c-.266.495-.5.953-.722,1.394a27.685,27.685,0,0,0-4.769-3.623,2.441,2.441,0,0,0-2.368-.152h0c-.035.017-.071.03-.106.048a2.292,2.292,0,0,0-1.237,2.078c.081,3.5.4,5.751.934,6.7a4.573,4.573,0,0,0,2.765,2.147,4.779,4.779,0,0,0,1.3.181,4.711,4.711,0,0,0,1.6-.285l.011,0a4.784,4.784,0,0,0,.549-.238,4.639,4.639,0,0,0,4.165,2.545,4.564,4.564,0,0,0,4.63-4.485c0-1.082-.845-3.205-2.513-6.307A2.39,2.39,0,0,0,168.388,101.594Zm-8.074-.311c2.81,1.817,4.61,3.263,5.07,4.073a3.551,3.551,0,0,1,.318,2.8,3.669,3.669,0,0,1-1.764,2.163c-.085-1.4-.736-4.84-4.66-9.277a1.6,1.6,0,0,1,.179-.011A1.578,1.578,0,0,1,160.314,101.283Zm.685,9.37a3.747,3.747,0,0,1-2.266-1.759c-.46-.81-.755-3.058-.831-6.328a1.454,1.454,0,0,1,.567-1.192c4.265,4.739,4.626,8.327,4.639,9.28A3.881,3.881,0,0,1,161,110.653Zm3.928-.012a4.449,4.449,0,0,0,1.577-2.263,4.333,4.333,0,0,0-.388-3.412l-.005-.007q.4-.815.9-1.746a1.516,1.516,0,0,1,1.089-.78c1.382,6.143-.086,9.456-.548,10.3A3.78,3.78,0,0,1,164.927,110.641Zm3.521,2.176c.621-1.266,1.761-4.583.528-10.3a1.509,1.509,0,0,1,.786.7c1.559,2.9,2.418,5.009,2.418,5.934A3.736,3.736,0,0,1,168.449,112.817Z" transform="translate(-157.066 -100.222)" fill="#dc1e44"/></g><g transform="translate(3.531)"><path d="M165.546,89.024l.02.011a4.612,4.612,0,0,0,2.267.583,4.638,4.638,0,0,0,4.321-2.861c.4-1.009.411-3.284.017-6.76a2.306,2.306,0,0,0-1.4-1.854h0c-.036-.016-.069-.035-.105-.048a2.436,2.436,0,0,0-2.439.417c-2.714,2.306-4.3,3.988-4.7,5a4.33,4.33,0,0,0,.078,3.432A4.5,4.5,0,0,0,165.546,89.024Zm5.829-2.561a3.835,3.835,0,0,1-4.852,2.113c1.053-.962,3.356-3.655,4.345-9.417a1.461,1.461,0,0,1,.472.926C171.708,83.336,171.721,85.6,171.374,86.464ZM164.3,83.8c.346-.862,1.934-2.525,4.473-4.683a1.545,1.545,0,0,1,1.308-.347c-1.009,6.211-3.616,8.785-4.362,9.407a3.676,3.676,0,0,1-1.355-1.566A3.543,3.543,0,0,1,164.3,83.8Z" transform="translate(-163.206 -77.935)" fill="#dc1e44"/></g><g transform="translate(16.068 8.024)"><path d="M194.456,93.782c-.935-.595-3.23-1.076-6.823-1.43a2.41,2.41,0,0,0-2.166.94v0c-.023.03-.049.058-.071.09a2.242,2.242,0,0,0-.089,2.4c1.762,3.053,3.129,4.9,4.064,5.5a4.706,4.706,0,0,0,2.533.738,4.85,4.85,0,0,0,.948-.095,4.629,4.629,0,0,0,2.49-1.385l.008-.009a4.549,4.549,0,0,0,.433-.535A4.4,4.4,0,0,0,194.456,93.782Zm-1.773,7.345a3.866,3.866,0,0,1-2.852-.526c-.8-.508-2.145-2.36-3.793-5.215a1.432,1.432,0,0,1-.076-1.311c6.059,2.254,8.113,5.26,8.585,6.1A3.8,3.8,0,0,1,192.682,101.127Zm2.432-1.631c-.751-1.2-2.989-3.943-8.6-6.084a1.561,1.561,0,0,1,1.034-.253c3.36.331,5.65.793,6.448,1.3a3.648,3.648,0,0,1,1.632,2.325A3.55,3.55,0,0,1,195.115,99.5Z" transform="translate(-185.002 -92.34)" fill="#dc1e44"/></g></g></g></g></svg>