<svg xmlns="http://www.w3.org/2000/svg" xmlns:xlink="http://www.w3.org/1999/xlink" width="260" height="260" viewBox="0 0 260 260"><defs><filter id="a" x="0" y="0" width="260" height="260" filterUnits="userSpaceOnUse"><feOffset dy="10" input="SourceAlpha"/><feGaussianBlur stdDeviation="10" result="b"/><feFlood flood-color="#343e48" flood-opacity="0.212"/><feComposite operator="in" in2="b"/><feComposite in="SourceGraphic"/></filter></defs><g transform="translate(6.581 -168.751)"><g transform="matrix(1, 0, 0, 1, -6.58, 168.75)" filter="url(#a)"><circle cx="100" cy="100" r="100" transform="translate(30 20)" fill="#dc1e44"/></g><path d="M1063.878,752.077c-4.091-22.924-16.537-32.338-25.547-37.422a47.034,47.034,0,0,0-12.154-4.778,26.283,26.283,0,1,0-22.72.083A49.643,49.643,0,0,0,989.041,716c-8.526,5.272-18.833,14.127-22.91,36a5.056,5.056,0,1,0,9.941,1.856c3.323-17.823,10.754-24.6,18.291-29.255a38.3,38.3,0,0,1,39-1.136c8.324,4.7,17.279,11.987,20.564,30.4a5.055,5.055,0,0,0,4.971,4.167,5.219,5.219,0,0,0,.894-.078A5.058,5.058,0,0,0,1063.878,752.077ZM1000.3,693.509a16.194,16.194,0,1,1,14.445,8.9A16.2,16.2,0,0,1,1000.3,693.509Z" transform="translate(-891.317 -420.324)" fill="#fff"/></g></svg>