<svg xmlns="http://www.w3.org/2000/svg" width="70" height="70" viewBox="0 0 70 70"><g transform="translate(-545 -268)"><rect width="70" height="70" rx="10" transform="translate(545 268)" fill="#dc1e44"/><g transform="translate(563 286)"><path d="M140.942,319.335a13.715,13.715,0,1,1,13.715-13.715A13.73,13.73,0,0,1,140.942,319.335Zm0-25.445a11.73,11.73,0,1,0,11.73,11.73A11.743,11.743,0,0,0,140.942,293.89Z" transform="translate(-127.227 -291.905)" fill="#fff" stroke="rgba(0,0,0,0)" stroke-width="1"/><path d="M184.658,351a1.648,1.648,0,0,1-1.17-.484l-9.249-9.25a1.654,1.654,0,1,1,2.339-2.339l9.25,9.25a1.654,1.654,0,0,1-1.17,2.824Z" transform="translate(-152.46 -317.145)" fill="#fff" stroke="rgba(0,0,0,0)" stroke-width="1"/><path d="M166.306,310.105a1.064,1.064,0,0,1-1.052-.915c-.867-6.095-6.775-6.94-6.834-6.947a1.065,1.065,0,0,1,.277-2.112c.076.01,7.574,1.081,8.666,8.76a1.065,1.065,0,0,1-.9,1.2A1.1,1.1,0,0,1,166.306,310.105Z" transform="translate(-143.118 -296.008)" fill="#fff" stroke="rgba(0,0,0,0)" stroke-width="1"/></g></g></svg>